<svg width="200" height="48" viewBox="0 0 200 48" fill="none" xmlns="http://www.w3.org/2000/svg">
    <g id="logo">
          
            <path d="M53.0311 35.1033V14.6021H55.1961L66.6589 30.5158V14.6021H69.1297V35.1033H66.9179L55.5019 19.1746V35.1033H53.0311Z" fill="white"/>
            <path d="M100.508 30.2407V33.5475C99.4886 34.1729 98.4485 34.6481 97.3914 34.9733C96.3343 35.2985 95.2858 35.4636 94.2498 35.4636C93.2521 35.4636 92.3012 35.3084 91.397 35.0033C90.4926 34.6931 89.6393 34.2379 88.8326 33.6325C87.5421 32.637 86.5358 31.3613 85.8184 29.8155C85.1009 28.2646 84.74 26.5837 84.74 24.7628C84.74 23.387 84.9777 22.0512 85.4491 20.7556C85.9202 19.4648 86.5953 18.3293 87.4657 17.3636C88.3953 16.3281 89.4354 15.5527 90.586 15.0424C91.7408 14.5271 93.0186 14.272 94.4196 14.272C95.4003 14.272 96.3683 14.4021 97.332 14.6672C98.2915 14.9324 99.3019 15.3475 100.355 15.9178V19.1046C99.2511 18.3992 98.2151 17.879 97.2428 17.5387C96.2749 17.2036 95.3324 17.0335 94.4196 17.0335C92.3861 17.0335 90.7091 17.7789 89.3803 19.2697C88.0515 20.7605 87.3892 22.6265 87.3892 24.8728C87.3892 27.094 88.043 28.945 89.3506 30.4358C90.6581 31.9266 92.2969 32.672 94.271 32.672C95.2858 32.672 96.3088 32.472 97.3448 32.0717C98.3849 31.6715 99.4378 31.0612 100.508 30.2407Z" fill="white"/>
            <path d="M103.255 14.6021H105.726V26.3685C105.726 27.6792 105.785 28.6097 105.904 29.1551C106.027 29.7004 106.227 30.1756 106.511 30.5759C107.025 31.2912 107.632 31.8215 108.336 32.1767C109.041 32.5269 109.844 32.7019 110.739 32.7019C112.247 32.7019 113.461 32.2418 114.382 31.3263C115.303 30.4058 115.762 29.1951 115.762 27.6892V14.6021H118.233V27.7793C118.233 30.0605 117.541 31.9115 116.157 33.3323C114.773 34.7531 112.968 35.4635 110.739 35.4635C109.419 35.4635 108.23 35.1884 107.169 34.6381C106.108 34.0827 105.216 33.2773 104.486 32.2118C104.036 31.5764 103.722 30.871 103.535 30.0906C103.348 29.3101 103.255 28.1095 103.255 26.4886V14.6021Z" fill="white"/>
            <path d="M124.346 26.0684V32.4319H127.658C128.867 32.4319 129.751 32.1817 130.307 31.6765C130.867 31.1712 131.147 30.3858 131.147 29.3101C131.147 28.1946 130.833 27.3741 130.209 26.8538C129.585 26.3285 128.6 26.0684 127.258 26.0684H124.346ZM121.875 35.1033V14.6021H126.97C128.706 14.6021 130.043 15.0674 130.982 15.9929C131.924 16.9233 132.395 18.2392 132.395 19.9501C132.395 21.0057 132.183 21.8861 131.763 22.5865C131.338 23.2919 130.693 23.8322 129.823 24.2124C131.088 24.5676 132.069 25.208 132.761 26.1335C133.453 27.0639 133.796 28.1896 133.796 29.5203C133.796 31.2212 133.27 32.5769 132.213 33.5875C131.156 34.598 129.725 35.1033 127.916 35.1033H121.875ZM124.346 23.397H126.027C127.297 23.397 128.239 23.1268 128.851 22.5915C129.466 22.0562 129.772 21.2358 129.772 20.1302C129.772 19.1247 129.53 18.3892 129.046 17.934C128.558 17.4737 127.785 17.2435 126.723 17.2435H124.346V23.397Z" fill="white"/>
            <path d="M139.944 26.4286H145.365L142.618 19.0445L139.944 26.4286ZM134.208 35.1033L141.748 14.6021H143.561L151.198 35.1033H148.626L146.384 29.0701H138.971L136.759 35.1033H134.208Z" fill="white"/>
            <path d="M155.355 35.1033V17.2736H148.961V14.6021H164.219V17.2736H157.826V35.1033H155.355Z" fill="white"/>
            <path d="M167.96 24.8728C167.96 25.9183 168.125 26.9189 168.456 27.8644C168.788 28.81 169.267 29.6504 169.887 30.3858C170.494 31.1161 171.203 31.6815 172.022 32.0768C172.838 32.472 173.691 32.672 174.578 32.672C175.487 32.672 176.344 32.477 177.147 32.0917C177.945 31.7065 178.662 31.1362 179.291 30.3858C179.91 29.6504 180.39 28.81 180.726 27.8644C181.061 26.9189 181.231 25.9183 181.231 24.8728C181.231 23.8272 181.065 22.8416 180.734 21.9061C180.403 20.9757 179.911 20.1202 179.265 19.3497C178.645 18.5944 177.932 18.024 177.126 17.6288C176.323 17.2336 175.474 17.0335 174.578 17.0335C173.712 17.0335 172.88 17.2336 172.069 17.6338C171.263 18.034 170.532 18.6043 169.887 19.3497C169.267 20.0601 168.788 20.8956 168.456 21.8562C168.125 22.8117 167.96 23.8172 167.96 24.8728ZM165.31 24.7628C165.31 23.397 165.548 22.0663 166.02 20.7805C166.491 19.4898 167.166 18.3492 168.036 17.3636C168.923 16.3581 169.925 15.5928 171.046 15.0625C172.163 14.5372 173.343 14.272 174.578 14.272C175.835 14.272 177.032 14.5372 178.166 15.0724C179.295 15.6027 180.293 16.3681 181.154 17.3636C182.059 18.3992 182.738 19.5549 183.196 20.8206C183.651 22.0912 183.88 23.472 183.88 24.9578C183.88 26.3536 183.647 27.6943 183.175 28.98C182.708 30.2658 182.042 31.3963 181.18 32.3719C180.276 33.3874 179.269 34.1578 178.153 34.6782C177.036 35.2035 175.843 35.4636 174.578 35.4636C173.343 35.4636 172.158 35.1934 171.025 34.6581C169.896 34.1178 168.898 33.3575 168.036 32.3719C167.14 31.3463 166.461 30.1857 166.002 28.9C165.54 27.6093 165.31 26.2285 165.31 24.7628Z" fill="white"/>
            <path d="M186.627 35.1033V14.6021H191.721C193.479 14.6021 194.838 15.0924 195.793 16.0679C196.748 17.0435 197.223 18.4292 197.223 20.2152C197.223 21.5659 196.96 22.6515 196.438 23.472C195.912 24.2924 195.088 24.9077 193.954 25.318C194.247 25.5031 194.519 25.7482 194.778 26.0584C195.037 26.3635 195.368 26.8789 195.776 27.6042L200 35.1033H196.99L194.005 29.7254C193.11 28.1045 192.388 27.0689 191.836 26.6237C191.288 26.1735 190.63 25.9484 189.87 25.9484H189.123V35.1033H186.627ZM189.123 23.487H191.186C192.345 23.487 193.211 23.2219 193.789 22.6965C194.362 22.1663 194.651 21.3608 194.651 20.2752C194.651 19.1596 194.379 18.3542 193.831 17.8488C193.284 17.3436 192.401 17.0935 191.186 17.0935H189.123V23.487Z" fill="white"/>
            <path d="M48.7891 11.799C50.2716 11.799 51.4734 10.5893 51.4734 9.0972C51.4734 7.60506 50.2716 6.39545 48.7891 6.39545C47.3065 6.39545 46.1047 7.60506 46.1047 9.0972C46.1047 10.5893 47.3065 11.799 48.7891 11.799Z" fill="#FF6583"/>
            <path d="M50.0277 14.2784H47.5921V34.8024H50.0277V14.2784Z" fill="white"/>
            <path d="M0 34.7727V14.314H2.97163V34.7727H0Z" fill="white"/>
            <path d="M13.0996 34.7727V16.9799H5.48853V14.314H23.652V16.9799H16.0409V34.7727H13.0996Z" fill="white"/>
            <path d="M27.3224 27.9683C28.805 27.9683 30.0068 26.7587 30.0068 25.2665C30.0068 23.7744 28.805 22.5648 27.3224 22.5648C25.8399 22.5648 24.6381 23.7744 24.6381 25.2665C24.6381 26.7587 25.8399 27.9683 27.3224 27.9683Z" fill="white"/>
            <path d="M58.0344 47C70.6551 47 80.8862 36.7025 80.8862 24C80.8862 11.2975 70.6551 1 58.0344 1C45.4137 1 35.1826 11.2975 35.1826 24C35.1826 36.7025 45.4137 47 58.0344 47Z" fill="transparent" stroke="white" stroke-miterlimit="22.9256"/>
            

    </g>


    <g id="home">
        <path
            d="M13.7499 22H17.8748C18.2543 22 18.5623 21.692 18.5623 21.3125V11.6875H21.3123C21.5904 11.6875 21.841 11.5201 21.9475 11.2629C22.0541 11.0061 21.9953 10.7105 21.7984 10.5139L11.4859 0.201352C11.2175 -0.0671175 10.7823 -0.0671175 10.5138 0.201352L0.201413 10.5139C0.0047898 10.7105 -0.053991 11.0061 0.0522269 11.2629C0.158789 11.5201 0.40938 11.6875 0.687472 11.6875H3.43745V21.3125C3.43745 21.692 3.74545 22 4.12494 22H8.24991C8.62941 22 8.9374 21.692 8.9374 21.3125V16.5H13.0624V21.3125C13.0624 21.692 13.3704 22 13.7499 22ZM8.24991 15.125C7.87041 15.125 7.56241 15.433 7.56241 15.8125V20.625H4.81244V11C4.81244 10.6205 4.50444 10.3125 4.12494 10.3125H2.34708L10.9999 1.65989L19.6527 10.3125H17.8748C17.4953 10.3125 17.1873 10.6205 17.1873 11V20.625H14.4374V15.8125C14.4374 15.433 14.1294 15.125 13.7499 15.125H8.24991Z"
             />
        <rect x="8.75" y="6.75" width="4.5" height="4.5" rx="2.25" stroke="white" stroke-width="1.5" />
    </g>

    <g id="computer">
        <path
            d="M11.5861 12.9237C12.0038 13.8957 13.0366 13.5132 13.2207 13.0632L14.8105 10.3003L17.6621 8.75682C18.1111 8.59033 18.5198 7.52835 17.5228 7.06936L10.0009 4.49542C9.06235 4.32443 8.67166 5.10291 8.87823 5.7104L11.5861 12.9237ZM15.044 8.19434L13.7821 8.85132C13.5935 8.89632 13.5037 9.04032 13.4094 9.17981L12.6639 10.4893L11.3077 6.88487L15.044 8.19434Z"
             />
        <path
            d="M21.0704 0H0.934066C0.422126 0 0 0.42299 0 0.935979V15.9161C0 16.4291 0.422126 16.8521 0.934066 16.8521H7.0549V20.128H5.6538C5.14186 20.128 4.71973 20.551 4.71973 21.064C4.71973 21.577 5.14186 22 5.6538 22H16.3057C16.8177 22 17.2398 21.577 17.2398 21.064C17.2398 20.551 16.8177 20.128 16.3057 20.128H14.9496V16.8521H21.021C21.5329 16.8521 21.9551 16.4291 22 15.9611V0.935979C22.0044 0.42299 21.5823 0 21.0704 0ZM13.0814 20.1325H8.87812V16.8521H13.0814V20.1325ZM20.1363 15.0297H1.82323V1.82696H20.1363V15.0297Z"
             />

    </g>


    <g id="sandbox">
        <path d="M18.8571 14.9287H17.2857V18.8573H18.8571V14.9287Z"  />
        <path d="M15.7145 11H14.1431V18.8571H15.7145V11Z"  />
        <path
            d="M7.07162 18.8571C6.03008 18.8559 5.03154 18.4416 4.29506 17.7051C3.55857 16.9687 3.14428 15.9701 3.14305 14.9286H4.71448C4.71448 15.3948 4.85272 15.8505 5.11173 16.2381C5.37074 16.6258 5.73887 16.9279 6.16958 17.1063C6.60029 17.2847 7.07424 17.3314 7.53148 17.2404C7.98872 17.1495 8.40872 16.925 8.73837 16.5953C9.06803 16.2657 9.29252 15.8457 9.38347 15.3884C9.47442 14.9312 9.42775 14.4572 9.24934 14.0265C9.07093 13.5958 8.76881 13.2277 8.38118 12.9687C7.99355 12.7097 7.53782 12.5714 7.07162 12.5714V11C8.11354 11 9.11279 11.4139 9.84954 12.1507C10.5863 12.8874 11.0002 13.8866 11.0002 14.9286C11.0002 15.9705 10.5863 16.9697 9.84954 17.7065C9.11279 18.4432 8.11354 18.8571 7.07162 18.8571Z"
             />
        <path
            d="M20.4286 0H1.57143C1.15479 0.000416017 0.75533 0.16611 0.46072 0.46072C0.16611 0.75533 0.000416017 1.15479 0 1.57143V20.4286C0.000478291 20.8452 0.166193 21.2446 0.460789 21.5392C0.755385 21.8338 1.15481 21.9995 1.57143 22H20.4286C20.8452 21.9994 21.2445 21.8337 21.5391 21.5391C21.8337 21.2445 21.9994 20.8452 22 20.4286V1.57143C21.9995 1.15481 21.8338 0.755385 21.5392 0.460789C21.2446 0.166193 20.8452 0.000478291 20.4286 0ZM20.4286 7.07143H9.42857V1.57143H20.4286V7.07143ZM7.85714 1.57143V7.07143H1.57143V1.57143H7.85714ZM1.57143 20.4286V8.64286H20.4291L20.4301 20.4286H1.57143Z"
             />

    </g>

    <g id="map">

        <path
            d="M9.1656 0.00512865C9.13255 0.00192325 9.09916 0 9.06513 0L8.99673 0.000961622L8.93487 0C8.90116 0 8.86778 0.0016027 8.83505 0.00512865C3.95575 0.125652 0 4.08882 0 8.87866C0 15.0346 6.99251 20.7182 8.39389 21.7949C8.5716 21.9317 8.78596 22 9 22C9.21404 22 9.42807 21.9317 9.60611 21.7949C11.0078 20.7182 18 15.0346 18 8.87866C18 4.08882 14.0452 0.125652 9.1656 0.00512865ZM9 19.796C7.1172 18.2359 1.96364 13.539 1.96364 8.87866C1.96364 5.10493 5.09793 1.98607 8.95058 1.92613C8.96629 1.92613 8.98167 1.92549 8.99738 1.92453H9.00033C9.00098 1.92453 9.00229 1.92453 9.0036 1.92453C9.01898 1.92549 9.03436 1.92613 9.05007 1.92613C12.9024 1.98607 16.037 5.10493 16.037 8.87866C16.0364 13.539 10.8828 18.2359 9 19.796Z"
             />
        <path
            d="M9.06551 4.45398C6.77329 4.45398 4.91504 6.27401 4.91504 8.5194C4.91504 10.7641 6.77329 12.5842 9.06551 12.5842C11.3577 12.5842 13.216 10.7641 13.216 8.5194C13.2157 6.27369 11.3577 4.45398 9.06551 4.45398ZM9.06551 10.6606C7.85984 10.6606 6.87868 9.69995 6.87868 8.51908C6.87868 7.33789 7.85984 6.3769 9.06551 6.3769C10.2715 6.3769 11.2523 7.33789 11.2523 8.51908C11.252 9.69995 10.2712 10.6606 9.06551 10.6606Z"
             />

    </g>
<g id = "img-1">
    <g clip-path="url(#clip0_2_59)">
        <path d="M262 107.386V191.405C261.997 193.684 261.093 195.868 259.484 197.48C257.876 199.091 255.696 199.997 253.422 200H189.097L189.695 199.242L261.244 108.348L262 107.386Z" fill="#F2F2F2"/>
        <path d="M102.385 77.7909H28.5224C27.9172 77.7909 27.3368 78.0318 26.9088 78.4606C26.4809 78.8893 26.2404 79.4709 26.2404 80.0773C26.2404 80.6836 26.4809 81.2652 26.9088 81.694C27.3368 82.1227 27.9172 82.3636 28.5224 82.3636H102.385C102.99 82.3636 103.57 82.1227 103.998 81.694C104.426 81.2652 104.667 80.6836 104.667 80.0773C104.667 79.4709 104.426 78.8893 103.998 78.4606C103.57 78.0318 102.99 77.7909 102.385 77.7909Z" fill="#E6E6E6"/>
        <path d="M51.4236 64.971H28.5224C27.9172 64.971 27.3368 65.2119 26.9088 65.6407C26.4809 66.0695 26.2404 66.651 26.2404 67.2574C26.2404 67.8638 26.4809 68.4453 26.9088 68.8741C27.3368 69.3029 27.9172 69.5438 28.5224 69.5438H51.4237C52.0289 69.5438 52.6093 69.3029 53.0373 68.8741C53.4652 68.4453 53.7057 67.8638 53.7057 67.2574C53.7057 66.651 53.4652 66.0695 53.0373 65.6407C52.6093 65.2119 52.0289 64.971 51.4237 64.971H51.4236Z" fill="#E6E6E6"/>
        <path d="M253.422 0H8.57833C6.30405 0.00274363 4.12371 0.909135 2.51556 2.52036C0.907403 4.13158 0.00273841 6.31608 0 8.5947V191.405C0.00273841 193.684 0.907403 195.868 2.51556 197.48C4.12371 199.091 6.30405 199.997 8.57833 200H253.422C255.696 199.997 257.876 199.091 259.484 197.48C261.093 195.868 261.997 193.684 262 191.405V8.5947C261.997 6.31608 261.093 4.13158 259.484 2.52036C257.876 0.909135 255.696 0.00274363 253.422 0ZM261.244 191.405C261.244 192.434 261.042 193.454 260.648 194.404C260.255 195.355 259.679 196.219 258.953 196.947C258.226 197.675 257.364 198.252 256.415 198.646C255.466 199.04 254.449 199.242 253.422 199.242H8.57833C6.50375 199.242 4.51415 198.417 3.0472 196.947C1.58026 195.477 0.756133 193.484 0.756133 191.405V59.7256C0.756133 44.0863 6.95698 29.0876 17.9946 18.0289C29.0321 6.97026 44.0023 0.757576 59.6118 0.757576H253.422C254.449 0.757576 255.466 0.96029 256.415 1.35414C257.364 1.74799 258.226 2.32527 258.953 3.05302C259.679 3.78076 260.255 4.64472 260.648 5.59556C261.042 6.5464 261.244 7.56551 261.244 8.5947V191.405Z" fill="#E6E6E6"/>
        <path d="M238.14 33.0563H23.8787C23.7784 33.0563 23.6822 33.0164 23.6113 32.9453C23.5404 32.8743 23.5006 32.7779 23.5006 32.6775C23.5006 32.577 23.5404 32.4807 23.6113 32.4096C23.6822 32.3386 23.7784 32.2987 23.8787 32.2987H238.14C238.241 32.2987 238.337 32.3386 238.408 32.4096C238.479 32.4807 238.518 32.577 238.518 32.6775C238.518 32.7779 238.479 32.8743 238.408 32.9453C238.337 33.0164 238.241 33.0563 238.14 33.0563Z" fill="#E6E6E6"/>
        <path d="M34.5987 21.6849C36.3644 21.6849 37.7958 20.2188 37.7958 18.4102C37.7958 16.6017 36.3644 15.1356 34.5987 15.1356C32.8329 15.1356 31.4015 16.6017 31.4015 18.4102C31.4015 20.2188 32.8329 21.6849 34.5987 21.6849Z" fill="#E6E6E6"/>
        <path d="M45.6434 21.6849C47.4092 21.6849 48.8406 20.2188 48.8406 18.4102C48.8406 16.6017 47.4092 15.1356 45.6434 15.1356C43.8777 15.1356 42.4463 16.6017 42.4463 18.4102C42.4463 20.2188 43.8777 21.6849 45.6434 21.6849Z" fill="#E6E6E6"/>
        <path d="M56.6882 21.6849C58.4539 21.6849 59.8853 20.2188 59.8853 18.4102C59.8853 16.6017 58.4539 15.1356 56.6882 15.1356C54.9224 15.1356 53.491 16.6017 53.491 18.4102C53.491 20.2188 54.9224 21.6849 56.6882 21.6849Z" fill="#E6E6E6"/>
        <path d="M69.2821 20.9984C69.2317 20.9985 69.1819 20.9884 69.1354 20.9689C69.089 20.9493 69.047 20.9206 69.0118 20.8845L66.8546 18.675C66.7854 18.6043 66.7467 18.5092 66.7467 18.4102C66.7467 18.3111 66.7854 18.2161 66.8546 18.1453L69.0118 15.936C69.0464 15.8999 69.0878 15.871 69.1336 15.851C69.1794 15.831 69.2287 15.8203 69.2786 15.8195C69.3286 15.8187 69.3782 15.8278 69.4246 15.8464C69.471 15.8649 69.5133 15.8924 69.549 15.9274C69.5847 15.9624 69.6132 16.0042 69.6327 16.0503C69.6522 16.0963 69.6624 16.1458 69.6627 16.1959C69.663 16.2459 69.6534 16.2956 69.6345 16.3419C69.6155 16.3882 69.5876 16.4303 69.5523 16.4657L67.6537 18.4102L69.5523 20.3548C69.6044 20.4081 69.6395 20.4756 69.6534 20.5488C69.6674 20.6221 69.6594 20.6978 69.6305 20.7665C69.6017 20.8352 69.5532 20.8939 69.4912 20.9351C69.4293 20.9764 69.3565 20.9984 69.2821 20.9984Z" fill="#E6E6E6"/>
        <path d="M72.9072 20.9984C72.8327 20.9984 72.76 20.9764 72.698 20.9351C72.636 20.8939 72.5875 20.8352 72.5587 20.7665C72.5298 20.6978 72.5219 20.622 72.5358 20.5488C72.5497 20.4756 72.5849 20.4081 72.6369 20.3548L74.5353 18.4101L72.6369 16.4657C72.5679 16.3937 72.5301 16.2973 72.5317 16.1975C72.5333 16.0977 72.5741 16.0025 72.6454 15.9327C72.7166 15.8629 72.8124 15.8241 72.9121 15.8247C73.0117 15.8253 73.1071 15.8653 73.1774 15.936L75.3345 18.1453C75.4036 18.216 75.4423 18.3111 75.4423 18.4101C75.4423 18.5092 75.4036 18.6042 75.3345 18.675L73.1774 20.8845C73.1422 20.9206 73.1002 20.9493 73.0538 20.9689C73.0074 20.9884 72.9575 20.9985 72.9072 20.9984Z" fill="#E6E6E6"/>
        <path d="M219.034 15.5147H215.022C214.914 15.5147 214.806 15.5361 214.705 15.5778C214.605 15.6195 214.514 15.6806 214.437 15.7576C214.36 15.8346 214.299 15.9261 214.257 16.0268C214.216 16.1274 214.194 16.2353 214.194 16.3443V20.367C214.194 20.4759 214.216 20.5838 214.257 20.6845C214.299 20.7851 214.36 20.8766 214.437 20.9536C214.514 21.0307 214.605 21.0918 214.705 21.1335C214.806 21.1751 214.914 21.1966 215.022 21.1965H219.034C219.254 21.1967 219.465 21.1095 219.621 20.954C219.776 20.7985 219.864 20.5874 219.865 20.367V16.3443C219.864 16.1238 219.776 15.9127 219.621 15.7572C219.465 15.6017 219.254 15.5145 219.034 15.5147Z" fill="#E6E6E6"/>
        <path d="M209.204 15.5147H205.192C205.084 15.5147 204.976 15.5361 204.876 15.5778C204.775 15.6195 204.684 15.6806 204.607 15.7576C204.53 15.8346 204.469 15.9261 204.427 16.0268C204.386 16.1274 204.365 16.2353 204.365 16.3443V20.367C204.365 20.4759 204.386 20.5838 204.427 20.6845C204.469 20.7851 204.53 20.8766 204.607 20.9536C204.684 21.0307 204.775 21.0918 204.876 21.1335C204.976 21.1751 205.084 21.1966 205.192 21.1965H209.204C209.424 21.1967 209.635 21.1095 209.791 20.954C209.947 20.7985 210.035 20.5874 210.036 20.367V16.3443C210.035 16.1238 209.947 15.9127 209.791 15.7572C209.635 15.6017 209.424 15.5145 209.204 15.5147Z" fill="#E6E6E6"/>
        <path d="M228.296 15.7041H224.285C224.176 15.7041 224.068 15.7255 223.968 15.7672C223.868 15.8089 223.776 15.87 223.699 15.947C223.622 16.024 223.561 16.1155 223.52 16.2162C223.478 16.3168 223.457 16.4247 223.457 16.5337V20.5564C223.457 20.6653 223.478 20.7732 223.52 20.8739C223.561 20.9745 223.622 21.066 223.699 21.143C223.776 21.2201 223.868 21.2812 223.968 21.3228C224.068 21.3645 224.176 21.386 224.285 21.3859H228.296C228.516 21.3861 228.727 21.2989 228.883 21.1434C229.039 20.9879 229.127 20.7768 229.128 20.5564V16.5337C229.127 16.3132 229.039 16.1021 228.883 15.9466C228.727 15.7911 228.516 15.7039 228.296 15.7041Z" fill="#E6E6E6"/>
        <path d="M147.041 17.2344H114.978C114.71 17.2344 114.453 17.341 114.264 17.5306C114.075 17.7203 113.968 17.9775 113.968 18.2458C113.968 18.514 114.075 18.7712 114.264 18.9609C114.453 19.1506 114.71 19.2571 114.978 19.2571H147.041C147.309 19.2571 147.566 19.1506 147.755 18.9609C147.945 18.7712 148.051 18.514 148.051 18.2458C148.051 17.9775 147.945 17.7203 147.755 17.5306C147.566 17.341 147.309 17.2344 147.041 17.2344Z" fill="#E6E6E6"/>
        <path d="M61.0983 155.472L41.9239 154.865C39.2645 154.781 36.2739 154.785 34.3771 156.162C32.2243 157.725 32.5502 160.493 34.3377 162.289C36.1251 164.085 38.9792 165.111 41.7804 165.945C56.6626 170.377 73.133 171.277 89.1253 170.274C105.118 169.271 120.781 166.436 136.367 163.611C137.845 163.343 139.52 162.958 140.123 161.927C140.706 160.93 139.943 159.727 138.758 159.083C137.573 158.439 136.07 158.221 134.621 158.03C108.365 154.573 81.8254 153.814 55.4157 155.766" fill="#6C63FF"/>
        <path d="M95.5487 140.697V136.152C92.2565 136.198 80.4751 136.118 77.4015 136.152C77.1728 152.038 75.7708 148.926 88.7617 148.988C89.3587 148.99 89.9306 149.229 90.3523 149.653C90.774 150.076 91.0112 150.65 91.012 151.248V151.316C91.012 151.916 90.7744 152.49 90.3514 152.914C89.9285 153.338 89.3549 153.576 88.7568 153.576H77.4015V158.121H95.5487C95.5742 158.106 95.5304 153.732 95.5488 153.576C96.3161 140.407 94.7979 145.143 83.766 144.615C83.2724 144.59 82.8075 144.376 82.4672 144.016C82.127 143.657 81.9376 143.181 81.9383 142.686V142.629C81.9383 142.116 82.1414 141.625 82.503 141.263C82.8646 140.901 83.355 140.697 83.8663 140.697H95.5487Z" fill="#3F3D56"/>
        <path d="M117.855 140.697V136.152C114.562 136.198 102.781 136.118 99.7074 136.152C99.4767 152.176 98.0523 148.871 111.409 148.99C111.917 148.996 112.403 149.201 112.76 149.563C113.117 149.925 113.318 150.413 113.318 150.922C113.318 151.161 113.318 151.405 113.318 151.645C113.318 151.898 113.268 152.149 113.171 152.384C113.074 152.618 112.932 152.831 112.753 153.01C112.574 153.19 112.361 153.332 112.128 153.429C111.894 153.526 111.643 153.576 111.39 153.576H99.7074V158.121H117.855C117.88 158.106 117.836 153.732 117.855 153.576C118.622 140.407 117.104 145.143 106.072 144.615C105.578 144.59 105.113 144.376 104.773 144.016C104.433 143.657 104.244 143.181 104.244 142.685V142.629C104.244 142.116 104.447 141.625 104.809 141.263C105.171 140.901 105.661 140.697 106.172 140.697H117.855Z" fill="#3F3D56"/>
        <path d="M72.1086 140.697V136.152H53.9614C53.9486 140.206 53.9707 150.936 53.9614 155.091C50.4042 161.124 70.6123 156.947 72.1096 158.123C72.1086 158.121 72.1086 153.576 72.1086 153.576C58.3012 153.503 57.9542 156.093 58.3984 143.564C58.4251 142.795 58.7488 142.066 59.3012 141.531C59.8537 140.996 60.5918 140.697 61.3601 140.697C65.3518 140.697 72.1086 140.697 72.1086 140.697Z" fill="#3F3D56"/>
        <path d="M107.979 101.179L88.8042 100.673C86.1448 100.602 83.1542 100.606 81.2573 101.754C79.1045 103.057 79.4305 105.365 81.2179 106.862C83.0053 108.359 85.8594 109.214 88.6607 109.909C103.543 113.604 120.013 114.354 136.006 113.518C151.998 112.682 167.661 110.319 183.247 107.963C184.725 107.74 186.401 107.419 187.003 106.56C187.587 105.728 186.824 104.726 185.638 104.189C184.453 103.652 182.95 103.471 181.501 103.311C155.201 100.428 128.703 99.797 102.296 101.424" fill="#6C63FF"/>
        <path d="M104.622 81.2273C104.313 88.2449 106.888 90.4537 98.0057 89.5598C97.4056 85.3734 100.449 79.5637 93.4694 81.0387C94.8676 84.0756 89.5743 107.116 98.0046 103.006C98.4781 96.084 95.3574 93.0479 104.622 94.1069C105.365 98.3861 101.898 104.683 109.159 103.196C107.761 100.158 113.054 77.1197 104.622 81.2273Z" fill="#3F3D56"/>
        <path d="M151.124 81.2273C151.747 81.6125 145.419 88.3196 145.283 88.8692C145.093 88.4002 139.053 81.838 139.782 81.2275C131.378 77.0666 136.616 100.241 135.244 103.198C135.246 103.197 139.782 103.197 139.782 103.197V88.8037C146.159 97.4211 144.975 95.9709 151.125 88.3806L151.124 103.197C159.528 107.359 154.291 84.1823 155.663 81.2262C155.661 81.2273 151.124 81.2273 151.124 81.2273Z" fill="#3F3D56"/>
        <path d="M131.087 81.2273H112.94C111.873 87.5992 115.399 85.4622 119.746 85.7726L119.745 103.197H124.282V85.7727C128.608 85.478 132.167 87.5711 131.087 81.2273Z" fill="#3F3D56"/>
        <path d="M163.979 98.6515C162.931 92.8909 162.931 86.9879 163.979 81.2273H159.442C159.468 84.1072 159.434 95.7281 159.436 101.042C159.436 101.616 159.663 102.166 160.068 102.572C160.472 102.978 161.021 103.206 161.594 103.206C166.164 103.212 174.89 103.178 177.589 103.197L177.589 98.6515H163.979Z" fill="#3F3D56"/>
        <path d="M48.0829 99.4091H29.643C28.7406 99.4091 27.8751 99.7683 27.237 100.408C26.5989 101.047 26.2404 101.914 26.2404 102.818C26.2404 103.722 26.5989 104.589 27.237 105.229C27.8751 105.868 28.7406 106.227 29.643 106.227H48.0829C48.9853 106.227 49.8508 105.868 50.4889 105.229C51.127 104.589 51.4855 103.722 51.4855 102.818C51.4855 101.914 51.127 101.047 50.4889 100.408C49.8508 99.7683 48.9853 99.4091 48.0829 99.4091H48.0829Z" fill="#E6E6E6"/>
        <path d="M215.268 196.048L211.525 196.048L209.744 181.582L215.269 181.583L215.268 196.048Z" fill="#FFB6B6"/>
        <path d="M215.4 199.961L203.889 199.96V199.815C203.889 198.624 204.361 197.482 205.201 196.641C206.041 195.799 207.181 195.326 208.369 195.326H208.369L210.472 193.728L214.395 195.326L215.4 195.326L215.4 199.961Z" fill="#2F2E41"/>
        <path d="M228.5 196.048L224.757 196.048L222.976 181.582L228.501 181.583L228.5 196.048Z" fill="#FFB6B6"/>
        <path d="M228.632 199.961L217.121 199.96V199.815C217.121 198.624 217.593 197.482 218.434 196.641C219.274 195.799 220.413 195.326 221.602 195.326H221.602L223.704 193.728L227.627 195.326L228.632 195.326L228.632 199.961Z" fill="#2F2E41"/>
        <path d="M205.948 117.227C205.948 117.227 202.346 128.31 203.011 129.769C203.676 131.227 204.81 130.091 203.676 131.227C202.542 132.364 201.551 131.156 202.614 133.085C203.676 135.015 205.285 150.901 205.993 151.67C206.7 152.439 207.673 152.46 206.809 153.207C205.944 153.955 204.81 152.439 205.944 153.955C207.078 155.47 210.088 190.423 210.088 190.423H215.967C215.967 190.423 217.432 188.731 216.603 187.631C215.774 186.53 216.676 186.106 216.603 185.371C216.53 184.636 216.806 183.052 216.857 182.329C216.908 181.606 217.902 164.383 215.515 154.434L219.867 135.49L222.044 158.386C222.044 158.386 219.618 177.591 222.044 183.765C222.044 183.765 220.088 185.397 220.956 186.342C221.823 187.288 222.579 186.53 221.823 187.288C221.067 188.045 222.957 190.697 222.957 190.697L229.384 190.318L233.022 154.434C233.022 154.434 233.635 150.692 233.022 150.05C232.409 149.409 232.409 151.682 232.409 149.409V146.379C232.409 146.379 235.15 127.741 235.103 126.643C235.055 125.545 230.518 117.591 230.518 117.591L205.948 117.227Z" fill="#2F2E41"/>
        <path d="M224.957 72.4043L215.572 71.7576L212.764 76.1939L206.001 78.9488V100.803C206.704 102.919 207.068 105.133 207.078 107.364C207.052 111.718 205.936 116.846 206.322 117.97C210.103 128.955 230.896 117.97 230.896 117.97L230.518 106.227L231.032 79.6896L226.783 76.2942L224.957 72.4043Z" fill="#E6E6E6"/>
        <path d="M205.567 121.971L204.92 115.062L200.929 114.882L201.872 122.162C201.63 122.52 201.493 122.938 201.475 123.37C201.457 123.802 201.56 124.23 201.772 124.607C201.984 124.983 202.296 125.293 202.674 125.501C203.052 125.71 203.48 125.808 203.911 125.786C204.342 125.764 204.758 125.622 205.112 125.375C205.467 125.129 205.746 124.789 205.918 124.392C206.09 123.996 206.148 123.56 206.086 123.132C206.024 122.704 205.844 122.302 205.567 121.971L205.567 121.971Z" fill="#FFB6B6"/>
        <path d="M207.531 78.3661L207.421 78.3848C206.391 78.5596 205.42 78.9831 204.591 79.6186C203.762 80.2541 203.1 81.0824 202.663 82.032C201.52 84.5084 197.808 100.788 199.435 103.243C200.697 105.147 200.391 104.776 199.797 106.212C199.204 107.649 198.249 106.116 199.032 108.396C199.815 110.675 200.675 110.35 199.949 111.231C199.222 112.111 198.476 111.939 199.183 113.414C199.89 114.889 199.775 115.387 199.908 115.942C200.042 116.498 199.926 120.405 199.926 120.405C199.926 120.405 204.189 120.081 206.311 121.097C206.311 121.097 205.127 117.151 205.796 116.519C206.466 115.887 207.269 115.811 206.695 114.891C206.122 113.972 204.822 113.933 206.237 113.474C207.652 113.015 207.196 104.779 207.196 104.779C209.526 98.6647 208.606 88.6087 207.531 78.3661Z" fill="#E6E6E6"/>
        <path d="M233.238 122.465L233.536 115.531L237.513 115.149L236.937 122.468C237.197 122.814 237.355 123.224 237.395 123.655C237.434 124.085 237.353 124.518 237.161 124.905C236.968 125.291 236.672 125.617 236.305 125.844C235.938 126.071 235.515 126.191 235.083 126.191C234.652 126.19 234.229 126.069 233.863 125.841C233.496 125.613 233.201 125.287 233.009 124.9C232.817 124.513 232.737 124.08 232.777 123.65C232.818 123.22 232.977 122.809 233.238 122.465Z" fill="#FFB6B6"/>
        <path d="M229.08 79.014L229.192 79.0271C230.228 79.1496 231.22 79.5235 232.08 80.1163C232.94 80.7091 233.642 81.5029 234.127 82.4291C235.393 84.8447 239.399 101.205 238.418 103.45C237.504 105.544 237.542 105.029 238.206 106.434C238.871 107.838 239.748 106.259 239.081 108.576C238.414 110.892 237.538 110.61 238.308 111.453C239.078 112.296 239.814 112.086 239.183 113.595C238.551 115.104 238.691 115.596 238.585 116.157C238.48 116.719 238.793 120.615 238.793 120.615C238.793 120.615 234.519 120.507 232.451 121.629C232.451 121.629 233.434 117.628 232.734 117.031C232.034 116.434 231.228 116.398 231.754 115.451C232.28 114.503 233.577 114.399 232.14 114.012C230.704 113.625 230.745 105.376 230.745 105.376L229.08 79.014Z" fill="#E6E6E6"/>
        <path d="M220.495 70.3684C224.538 70.3684 227.815 67.0847 227.815 63.0342C227.815 58.9837 224.538 55.7 220.495 55.7C216.452 55.7 213.175 58.9837 213.175 63.0342C213.175 67.0847 216.452 70.3684 220.495 70.3684Z" fill="#FFB6B6"/>
        <path d="M225.589 69.3121C226.607 68.5139 226.706 66.9923 227.575 66.0331C229.027 64.4294 229.71 62.704 228.949 60.8038C228.276 59.1231 228.419 57.0571 226.969 55.9753C227.681 55.7171 227.849 55.1809 227.221 55.171C226.797 55.1643 225.218 55.9754 225.978 54.965C226.738 53.9545 225.299 54.3534 225.395 53.9398C225.49 53.5262 226.1 53.2971 226.369 53.625C226.142 53.3925 225.864 53.2151 225.558 53.1063C225.252 52.9975 224.926 52.9602 224.603 52.9972C224.28 53.0341 223.971 53.1444 223.697 53.3197C223.423 53.4949 223.193 53.7304 223.024 54.0082C222.168 52.7227 221.259 51.8381 219.949 52.6539C218.663 53.4551 218.679 54.4456 217.296 54.2076C216.645 54.0957 216.584 55.327 216.139 55.8159C215.934 56.0758 215.667 56.28 215.363 56.41C215.058 56.5401 214.726 56.5918 214.397 56.5604C213.748 56.4376 213.252 55.6279 213.616 55.0759L212.087 58.5697L211.471 57.8126C210.492 58.4517 210.814 60.1195 211.799 60.7486C212.785 61.3777 214.065 61.2432 215.2 60.9644C216.566 60.6287 217.976 60.5115 219.378 60.6172C221.52 60.9204 223.012 63.4864 222.219 65.503C223.042 64.6933 224.565 65.3653 224.991 66.4392C225.417 67.513 225.105 68.7229 224.789 69.8344" fill="#2F2E41"/>
        </g>
        <defs>
        <clipPath id="clip0_2_59">
        <rect width="262" height="200" fill="white"/>
        </clipPath>
        </defs>  
</g>
  <g id = "img-2">
        <g clip-path="url(#clip0_2_100)">
        <path d="M228.579 17.5589C228.198 17.3748 227.812 17.2003 227.431 17.0225C216.407 11.9173 204.591 7.76983 192.228 4.66587L189.361 33.3023H171.188V0.485631C170.044 0.314232 168.891 0.152355 167.738 0V33.3023H146.141C134.252 33.3023 122.85 29.8823 114.443 23.7946C106.036 17.707 101.313 9.45038 101.312 0.841161C100.155 1.02208 99.0068 1.21567 97.8584 1.42198V33.3023H80.2679L77.5371 5.99581C64.8318 9.52419 52.7698 14.1642 41.6198 19.8125C41.4269 19.9077 41.234 20.0061 41.0455 20.1013C40.0768 20.5933 39.1213 21.0948 38.1701 21.6027V130.851H90.0122L89.096 121.662L84.0552 71.2101H185.57L180.529 121.662L179.613 130.851H230.881V18.6635C230.118 18.289 229.351 17.9208 228.579 17.5589ZM97.8584 62.8782H83.2223L80.5178 35.8034H97.8584V62.8782ZM167.738 62.8782H143.156V62.3418C143.156 62.0839 143.086 61.8286 142.95 61.5904C142.813 61.3522 142.613 61.1358 142.361 60.9536C142.109 60.7714 141.81 60.627 141.481 60.5286C141.152 60.4302 140.799 60.3798 140.443 60.3802H129.756C129.4 60.3801 129.048 60.4308 128.719 60.5293C128.391 60.6279 128.092 60.7724 127.84 60.9545C127.589 61.1367 127.389 61.353 127.253 61.591C127.117 61.829 127.047 62.0842 127.047 62.3418V62.8782H101.312V35.8034H167.738V62.8782ZM171.188 62.8782V35.8034H189.111L186.407 62.8782H171.188Z" fill="#F2F2F2"/>
        <path d="M254.038 184.726L254.317 178.84C257.228 177.381 260.474 176.611 263.774 176.595C259.232 180.077 259.8 186.788 256.721 191.47C255.748 192.923 254.44 194.153 252.892 195.068C251.343 195.982 249.596 196.559 247.778 196.754L243.977 198.936C243.456 196.21 243.571 193.41 244.314 190.73C245.058 188.049 246.412 185.552 248.284 183.41C249.347 182.218 250.566 181.156 251.912 180.25C252.822 182.5 254.038 184.726 254.038 184.726Z" fill="#F2F2F2"/>
        <path d="M58.424 177.831L49.6188 175.127C48.464 170.367 48.4719 165.394 49.6419 160.638C53.2679 168.537 63.6284 170.346 69.5995 176.609C71.4471 178.578 72.8344 180.942 73.6587 183.528C74.483 186.114 74.7231 188.855 74.3613 191.548L76.2886 197.872C71.9751 197.556 67.7804 196.295 63.9934 194.176C60.2065 192.058 56.9174 189.131 54.3527 185.598C52.9332 183.602 51.7672 181.433 50.8822 179.141C54.6167 178.711 58.424 177.831 58.424 177.831Z" fill="#F2F2F2"/>
        <path d="M246.763 198.246C246.762 198.43 246.689 198.605 246.561 198.736C246.498 198.799 246.422 198.85 246.339 198.884C246.256 198.919 246.168 198.936 246.078 198.936H243.323C243.233 198.936 243.144 198.918 243.061 198.884C242.977 198.849 242.902 198.799 242.838 198.734C242.774 198.67 242.724 198.594 242.69 198.51C242.655 198.427 242.638 198.337 242.638 198.246V114.399C242.638 112.551 242.021 111.05 241.264 111.047H34.8453C34.0847 111.05 33.4714 112.551 33.468 114.399V197.732C33.4674 197.904 33.4037 198.069 33.2891 198.195C33.1745 198.322 33.0173 198.402 32.8479 198.418C32.2928 198.474 31.7378 198.522 31.1862 198.567C31.1725 198.567 31.1588 198.57 31.1451 198.57C30.8436 198.598 30.5421 198.618 30.2406 198.643H30.2372C30.0796 198.356 29.9288 198.063 29.7746 197.77C29.7252 197.671 29.6994 197.561 29.6993 197.449V110.05C29.6993 109.54 29.7198 109.026 29.7541 108.519C29.803 107.823 29.8888 107.13 30.011 106.443C30.5901 103.24 31.8988 101.071 33.3858 101.064H242.72C242.937 101.065 243.152 101.111 243.351 101.198C243.643 101.328 243.907 101.514 244.128 101.746C244.429 102.061 244.686 102.415 244.892 102.798C245.626 104.098 246.15 106.036 246.335 108.292C246.335 108.312 246.338 108.333 246.338 108.354C246.386 108.912 246.41 109.481 246.407 110.05L246.455 117.441L246.486 121.848L246.578 135.676L246.612 140.587L246.763 198.246Z" fill="#E6E6E6"/>
        <path d="M265.416 199.879L170.933 200C170.825 200 170.721 199.95 170.645 199.862C170.569 199.773 170.526 199.654 170.526 199.529C170.526 199.404 170.569 199.284 170.645 199.196C170.721 199.108 170.825 199.058 170.933 199.057L265.416 198.936C265.524 198.936 265.627 198.986 265.703 199.074C265.78 199.163 265.822 199.282 265.822 199.407C265.822 199.532 265.78 199.652 265.703 199.74C265.627 199.828 265.524 199.878 265.416 199.879Z" fill="#CACACA"/>
        <path d="M148.429 76.5956H131.207C130.964 76.5959 130.73 76.6914 130.558 76.8611C130.386 77.0307 130.29 77.2606 130.29 77.5002V104.255H149.349V77.5002C149.349 77.3814 149.325 77.2637 149.279 77.1539C149.233 77.0442 149.165 76.9444 149.08 76.8604C148.994 76.7764 148.893 76.7097 148.781 76.6643C148.67 76.6189 148.55 76.5955 148.429 76.5956ZM139.876 91.7974C139.338 91.7949 138.822 91.5834 138.441 91.2089C138.06 90.8344 137.845 90.3271 137.843 89.7974V86.7115C137.843 86.1811 138.057 85.6724 138.438 85.2973C138.82 84.9223 139.337 84.7116 139.876 84.7116C140.416 84.7116 140.933 84.9223 141.314 85.2973C141.696 85.6724 141.91 86.1811 141.91 86.7115V89.7974C141.907 90.3271 141.692 90.8344 141.311 91.2089C140.931 91.5834 140.415 91.7949 139.876 91.7974Z" fill="#2F2E41"/>
        <path d="M175.618 35.1063H104.021C103.406 35.1073 102.817 35.3532 102.382 35.7901C101.947 36.227 101.702 36.8193 101.701 37.4371V85.9668C101.702 86.5848 101.946 87.1773 102.381 87.6143C102.816 88.0513 103.406 88.2971 104.021 88.2977H175.618C176.233 88.2971 176.823 88.0513 177.258 87.6143C177.693 87.1773 177.937 86.5848 177.938 85.9668V37.4371C177.937 36.8193 177.692 36.227 177.257 35.7901C176.822 35.3532 176.233 35.1073 175.618 35.1063Z" fill="#3F3D56"/>
        <path d="M175.635 37.234H105.063C104.733 37.2347 104.416 37.3642 104.183 37.5942C103.95 37.8243 103.819 38.1359 103.819 38.4608V84.9457C103.819 85.2702 103.95 85.5813 104.184 85.8108C104.417 86.0403 104.733 86.1695 105.063 86.17H175.635C175.965 86.1695 176.281 86.0403 176.514 85.8108C176.747 85.5813 176.879 85.2702 176.879 84.9457V38.4609C176.879 38.1359 176.748 37.8243 176.515 37.5942C176.282 37.3642 175.965 37.2347 175.635 37.234Z" fill="white"/>
        <path d="M130.29 103.191V105.861C130.29 106 130.344 106.132 130.44 106.23C130.535 106.328 130.665 106.383 130.8 106.383H148.839C148.974 106.383 149.104 106.327 149.199 106.23C149.295 106.132 149.348 106 149.349 105.861V103.191H130.29Z" fill="#3F3D56"/>
        <path d="M161.285 107.447H119.413C119.298 107.447 119.185 107.418 119.082 107.361C118.978 107.305 118.887 107.222 118.815 107.12C118.742 107.017 118.691 106.898 118.664 106.77C118.637 106.642 118.635 106.508 118.659 106.379L119.309 102.831C119.346 102.632 119.441 102.454 119.578 102.326C119.715 102.198 119.886 102.128 120.062 102.127H160.635C160.812 102.128 160.983 102.198 161.12 102.326C161.257 102.454 161.352 102.632 161.389 102.831L162.039 106.379C162.062 106.508 162.061 106.642 162.034 106.77C162.007 106.898 161.955 107.017 161.883 107.12C161.811 107.222 161.72 107.305 161.616 107.361C161.513 107.418 161.4 107.447 161.285 107.447Z" fill="#2F2E41"/>
        <path d="M121.682 103.191H120.898C120.822 103.191 120.76 103.294 120.76 103.422V104.026C120.76 104.153 120.822 104.256 120.898 104.256H121.682C121.758 104.256 121.819 104.153 121.819 104.026V103.422C121.819 103.294 121.758 103.191 121.682 103.191Z" fill="#3F3D56"/>
        <path d="M123.8 103.191H123.015C122.939 103.191 122.878 103.294 122.878 103.422V104.026C122.878 104.153 122.939 104.256 123.015 104.256H123.8C123.876 104.256 123.937 104.153 123.937 104.026V103.422C123.937 103.294 123.876 103.191 123.8 103.191Z" fill="#3F3D56"/>
        <path d="M126.976 103.191H126.192C126.116 103.191 126.054 103.294 126.054 103.422V104.026C126.054 104.153 126.116 104.256 126.192 104.256H126.976C127.052 104.256 127.114 104.153 127.114 104.026V103.422C127.114 103.294 127.052 103.191 126.976 103.191Z" fill="#3F3D56"/>
        <path d="M129.094 103.191H128.31C128.234 103.191 128.172 103.294 128.172 103.422V104.026C128.172 104.153 128.234 104.256 128.31 104.256H129.094C129.17 104.256 129.231 104.153 129.231 104.026V103.422C129.231 103.294 129.17 103.191 129.094 103.191Z" fill="#3F3D56"/>
        <path d="M132.132 103.191H130.565C130.413 103.191 130.29 103.294 130.29 103.421V104.024C130.29 104.151 130.413 104.254 130.565 104.254H132.132C132.283 104.254 132.406 104.151 132.406 104.024V103.421C132.406 103.294 132.283 103.191 132.132 103.191Z" fill="#3F3D56"/>
        <path d="M134.388 103.191H133.604C133.528 103.191 133.466 103.294 133.466 103.422V104.026C133.466 104.153 133.528 104.256 133.604 104.256H134.388C134.464 104.256 134.526 104.153 134.526 104.026V103.422C134.526 103.294 134.464 103.191 134.388 103.191Z" fill="#3F3D56"/>
        <path d="M137.426 103.191H135.859C135.707 103.191 135.584 103.294 135.584 103.421V104.024C135.584 104.151 135.707 104.254 135.859 104.254H137.426C137.578 104.254 137.701 104.151 137.701 104.024V103.421C137.701 103.294 137.578 103.191 137.426 103.191Z" fill="#3F3D56"/>
        <path d="M139.682 103.191H138.898C138.822 103.191 138.761 103.294 138.761 103.421V104.024C138.761 104.151 138.822 104.254 138.898 104.254H139.682C139.757 104.254 139.819 104.151 139.819 104.024V103.421C139.819 103.294 139.757 103.191 139.682 103.191Z" fill="#3F3D56"/>
        <path d="M141.8 103.191H141.016C140.94 103.191 140.878 103.294 140.878 103.422V104.026C140.878 104.153 140.94 104.256 141.016 104.256H141.8C141.876 104.256 141.938 104.153 141.938 104.026V103.422C141.938 103.294 141.876 103.191 141.8 103.191Z" fill="#3F3D56"/>
        <path d="M144.977 103.191H144.192C144.116 103.191 144.055 103.294 144.055 103.422V104.026C144.055 104.153 144.116 104.256 144.192 104.256H144.977C145.053 104.256 145.114 104.153 145.114 104.026V103.422C145.114 103.294 145.053 103.191 144.977 103.191Z" fill="#3F3D56"/>
        <path d="M147.094 103.191H146.31C146.234 103.191 146.173 103.294 146.173 103.422V104.026C146.173 104.153 146.234 104.256 146.31 104.256H147.094C147.17 104.256 147.232 104.153 147.232 104.026V103.422C147.232 103.294 147.17 103.191 147.094 103.191Z" fill="#3F3D56"/>
        <path d="M150.132 103.191H148.565C148.413 103.191 148.29 103.294 148.29 103.421V104.024C148.29 104.151 148.413 104.254 148.565 104.254H150.132C150.284 104.254 150.407 104.151 150.407 104.024V103.421C150.407 103.294 150.284 103.191 150.132 103.191Z" fill="#3F3D56"/>
        <path d="M152.388 103.191H151.604C151.528 103.191 151.467 103.294 151.467 103.421V104.024C151.467 104.151 151.528 104.254 151.604 104.254H152.388C152.464 104.254 152.525 104.151 152.525 104.024V103.421C152.525 103.294 152.464 103.191 152.388 103.191Z" fill="#3F3D56"/>
        <path d="M155.426 103.191H153.859C153.708 103.191 153.585 103.294 153.585 103.421V104.024C153.585 104.151 153.708 104.254 153.859 104.254H155.426C155.578 104.254 155.701 104.151 155.701 104.024V103.421C155.701 103.294 155.578 103.191 155.426 103.191Z" fill="#3F3D56"/>
        <path d="M157.682 103.191H156.898C156.823 103.191 156.761 103.294 156.761 103.421V104.024C156.761 104.151 156.823 104.254 156.898 104.254H157.682C157.758 104.254 157.819 104.151 157.819 104.024V103.421C157.819 103.294 157.758 103.191 157.682 103.191Z" fill="#3F3D56"/>
        <path d="M159.801 103.191H159.016C158.94 103.191 158.879 103.294 158.879 103.422V104.026C158.879 104.153 158.94 104.256 159.016 104.256H159.801C159.876 104.256 159.938 104.153 159.938 104.026V103.422C159.938 103.294 159.876 103.191 159.801 103.191Z" fill="#3F3D56"/>
        <path d="M121.682 104.255H120.898C120.822 104.255 120.76 104.358 120.76 104.485V105.09C120.76 105.217 120.822 105.32 120.898 105.32H121.682C121.758 105.32 121.819 105.217 121.819 105.09V104.485C121.819 104.358 121.758 104.255 121.682 104.255Z" fill="#3F3D56"/>
        <path d="M123.8 104.255H123.015C122.939 104.255 122.878 104.358 122.878 104.485V105.09C122.878 105.217 122.939 105.32 123.015 105.32H123.8C123.876 105.32 123.937 105.217 123.937 105.09V104.485C123.937 104.358 123.876 104.255 123.8 104.255Z" fill="#3F3D56"/>
        <path d="M126.976 104.255H126.192C126.116 104.255 126.054 104.358 126.054 104.485V105.09C126.054 105.217 126.116 105.32 126.192 105.32H126.976C127.052 105.32 127.114 105.217 127.114 105.09V104.485C127.114 104.358 127.052 104.255 126.976 104.255Z" fill="#3F3D56"/>
        <path d="M129.094 104.255H128.31C128.234 104.255 128.172 104.358 128.172 104.485V105.09C128.172 105.217 128.234 105.32 128.31 105.32H129.094C129.17 105.32 129.231 105.217 129.231 105.09V104.485C129.231 104.358 129.17 104.255 129.094 104.255Z" fill="#3F3D56"/>
        <path d="M132.132 104.255H130.565C130.413 104.255 130.29 104.358 130.29 104.485V105.088C130.29 105.215 130.413 105.318 130.565 105.318H132.132C132.283 105.318 132.406 105.215 132.406 105.088V104.485C132.406 104.358 132.283 104.255 132.132 104.255Z" fill="#3F3D56"/>
        <path d="M134.388 104.255H133.604C133.528 104.255 133.466 104.358 133.466 104.485V105.09C133.466 105.217 133.528 105.32 133.604 105.32H134.388C134.464 105.32 134.526 105.217 134.526 105.09V104.485C134.526 104.358 134.464 104.255 134.388 104.255Z" fill="#3F3D56"/>
        <path d="M136.505 104.255H135.721C135.646 104.255 135.584 104.358 135.584 104.485V105.088C135.584 105.215 135.646 105.318 135.721 105.318H136.505C136.581 105.318 136.642 105.215 136.642 105.088V104.485C136.642 104.358 136.581 104.255 136.505 104.255Z" fill="#3F3D56"/>
        <path d="M139.682 104.255H138.898C138.822 104.255 138.761 104.358 138.761 104.485V105.088C138.761 105.215 138.822 105.318 138.898 105.318H139.682C139.757 105.318 139.819 105.215 139.819 105.088V104.485C139.819 104.358 139.757 104.255 139.682 104.255Z" fill="#3F3D56"/>
        <path d="M141.8 104.255H141.016C140.94 104.255 140.878 104.358 140.878 104.485V105.09C140.878 105.217 140.94 105.32 141.016 105.32H141.8C141.876 105.32 141.938 105.217 141.938 105.09V104.485C141.938 104.358 141.876 104.255 141.8 104.255Z" fill="#3F3D56"/>
        <path d="M144.977 104.255H144.192C144.116 104.255 144.055 104.358 144.055 104.485V105.09C144.055 105.217 144.116 105.32 144.192 105.32H144.977C145.053 105.32 145.114 105.217 145.114 105.09V104.485C145.114 104.358 145.053 104.255 144.977 104.255Z" fill="#3F3D56"/>
        <path d="M147.094 104.255H146.31C146.234 104.255 146.173 104.358 146.173 104.485V105.09C146.173 105.217 146.234 105.32 146.31 105.32H147.094C147.17 105.32 147.232 105.217 147.232 105.09V104.485C147.232 104.358 147.17 104.255 147.094 104.255Z" fill="#3F3D56"/>
        <path d="M150.132 104.255H148.565C148.413 104.255 148.29 104.358 148.29 104.485V105.088C148.29 105.215 148.413 105.318 148.565 105.318H150.132C150.284 105.318 150.407 105.215 150.407 105.088V104.485C150.407 104.358 150.284 104.255 150.132 104.255Z" fill="#3F3D56"/>
        <path d="M152.388 104.255H151.604C151.528 104.255 151.467 104.358 151.467 104.485V105.088C151.467 105.215 151.528 105.318 151.604 105.318H152.388C152.464 105.318 152.525 105.215 152.525 105.088V104.485C152.525 104.358 152.464 104.255 152.388 104.255Z" fill="#3F3D56"/>
        <path d="M155.426 104.255H153.859C153.708 104.255 153.585 104.358 153.585 104.485V105.088C153.585 105.215 153.708 105.318 153.859 105.318H155.426C155.578 105.318 155.701 105.215 155.701 105.088V104.485C155.701 104.358 155.578 104.255 155.426 104.255Z" fill="#3F3D56"/>
        <path d="M157.682 104.255H156.898C156.823 104.255 156.761 104.358 156.761 104.485V105.088C156.761 105.215 156.823 105.318 156.898 105.318H157.682C157.758 105.318 157.819 105.215 157.819 105.088V104.485C157.819 104.358 157.758 104.255 157.682 104.255Z" fill="#3F3D56"/>
        <path d="M159.801 104.255H159.016C158.94 104.255 158.879 104.358 158.879 104.485V105.09C158.879 105.217 158.94 105.32 159.016 105.32H159.801C159.876 105.32 159.938 105.217 159.938 105.09V104.485C159.938 104.358 159.876 104.255 159.801 104.255Z" fill="#3F3D56"/>
        <path d="M171.327 43.6166H105.135C105.066 43.6137 105.001 43.5564 104.953 43.457C104.905 43.3576 104.878 43.224 104.878 43.0848C104.878 42.9457 104.905 42.8121 104.953 42.7127C105.001 42.6133 105.066 42.556 105.135 42.5531H171.327C171.396 42.556 171.462 42.6133 171.51 42.7127C171.558 42.8121 171.585 42.9457 171.585 43.0848C171.585 43.224 171.558 43.3576 171.51 43.457C171.462 43.5564 171.396 43.6137 171.327 43.6166Z" fill="#CACACA"/>
        <path d="M109.642 41.4893C110.519 41.4893 111.23 40.7748 111.23 39.8935C111.23 39.0122 110.519 38.2978 109.642 38.2978C108.765 38.2978 108.054 39.0122 108.054 39.8935C108.054 40.7748 108.765 41.4893 109.642 41.4893Z" fill="#3F3D56"/>
        <path d="M114.936 41.4893C115.813 41.4893 116.524 40.7748 116.524 39.8935C116.524 39.0122 115.813 38.2978 114.936 38.2978C114.059 38.2978 113.348 39.0122 113.348 39.8935C113.348 40.7748 114.059 41.4893 114.936 41.4893Z" fill="#3F3D56"/>
        <path d="M120.76 41.4893C121.345 41.4893 121.819 40.7748 121.819 39.8935C121.819 39.0122 121.345 38.2978 120.76 38.2978C120.175 38.2978 119.701 39.0122 119.701 39.8935C119.701 40.7748 120.175 41.4893 120.76 41.4893Z" fill="#3F3D56"/>
        <path d="M168.134 38.2978H164.447C164.374 38.3006 164.304 38.3578 164.253 38.4573C164.202 38.5568 164.173 38.6906 164.173 38.8299C164.173 38.9692 164.202 39.103 164.253 39.2025C164.304 39.302 164.374 39.3593 164.447 39.362H168.134C168.207 39.3593 168.277 39.302 168.328 39.2025C168.379 39.103 168.408 38.9692 168.408 38.8299C168.408 38.6906 168.379 38.5568 168.328 38.4573C168.277 38.3578 168.207 38.3006 168.134 38.2978Z" fill="#3F3D56"/>
        <path d="M168.134 39.3616H164.447C164.374 39.3644 164.304 39.4216 164.253 39.521C164.202 39.6204 164.173 39.7541 164.173 39.8933C164.173 40.0324 164.202 40.1661 164.253 40.2655C164.304 40.3649 164.374 40.4221 164.447 40.4249H168.134C168.207 40.4221 168.277 40.3649 168.328 40.2655C168.379 40.1661 168.408 40.0324 168.408 39.8933C168.408 39.7541 168.379 39.6204 168.328 39.521C168.277 39.4216 168.207 39.3644 168.134 39.3616Z" fill="#3F3D56"/>
        <path d="M168.134 40.4254H164.447C164.374 40.4282 164.304 40.4854 164.253 40.5848C164.202 40.6842 164.173 40.8179 164.173 40.9571C164.173 41.0963 164.202 41.2299 164.253 41.3293C164.304 41.4287 164.374 41.486 164.447 41.4887H168.134C168.207 41.486 168.277 41.4287 168.328 41.3293C168.379 41.2299 168.408 41.0963 168.408 40.9571C168.408 40.8179 168.379 40.6842 168.328 40.5848C168.277 40.4854 168.207 40.4282 168.134 40.4254Z" fill="#3F3D56"/>
        <path d="M143.982 58.5105H135.657C135.032 58.5105 134.525 58.987 134.525 59.5749V59.5749C134.525 60.1628 135.032 60.6393 135.657 60.6393H143.982C144.607 60.6393 145.114 60.1628 145.114 59.5749V59.5749C145.114 58.987 144.607 58.5105 143.982 58.5105Z" fill="#6C63FF"/>
        <path d="M149.285 62.7658H130.354C129.734 62.7658 129.231 63.4804 129.231 64.3618V64.3618C129.231 65.2433 129.734 65.9578 130.354 65.9578H149.285C149.905 65.9578 150.408 65.2433 150.408 64.3618V64.3618C150.408 63.4804 149.905 62.7658 149.285 62.7658Z" fill="#E6E6E6"/>
        <path d="M149.285 68.085H130.354C129.734 68.085 129.231 68.5615 129.231 69.1494C129.231 69.7372 129.734 70.2138 130.354 70.2138H149.285C149.905 70.2138 150.408 69.7372 150.408 69.1494C150.408 68.5615 149.905 68.085 149.285 68.085Z" fill="#E6E6E6"/>
        <path d="M106.326 110.638H85.4281C84.6891 110.638 83.9804 110.925 83.4578 111.437C82.9353 111.949 82.6417 112.642 82.6417 113.366C82.6417 114.089 82.9353 114.783 83.4578 115.295C83.9804 115.806 84.6891 116.094 85.4281 116.094H93.0908V137.234H98.6637V116.094H106.326C107.065 116.094 107.774 115.806 108.297 115.295C108.819 114.783 109.113 114.089 109.113 113.366C109.113 112.642 108.819 111.949 108.297 111.437C107.774 110.925 107.065 110.638 106.326 110.638Z" fill="#3F3D56"/>
        <path d="M119.921 148.936H64.9286C59.5974 148.916 54.4511 146.98 50.4299 143.479C46.4087 139.979 43.7809 135.149 43.0266 129.872L41.08 122.712C37.051 107.875 30.914 93.6924 22.8566 80.5984C19.1739 74.6177 17.2784 68.8285 21.5837 63.2548C21.6203 63.2073 21.6564 63.1605 21.6918 63.1144C25.1449 58.62 42.3321 57.6471 47.935 57.4579C48.1564 57.4503 48.3785 57.4466 48.6016 57.4467H82.8061C83.0293 57.4467 83.2514 57.4504 83.4725 57.4579C86.4929 57.5459 89.4332 58.4499 91.9813 60.074C94.5294 61.6981 96.5903 63.9817 97.9454 66.6825C99.3913 69.4399 100.064 72.5372 99.8915 75.646C99.7192 78.7547 98.7086 81.7588 96.9668 84.3395C84.9517 102.387 81.2731 113.704 85.0392 121.033C88.6822 128.121 99.8493 131.746 120.183 132.438C125.647 132.624 128.154 136.879 128.172 140.753C128.189 144.527 125.778 148.695 120.444 148.925C120.271 148.932 120.096 148.936 119.921 148.936Z" fill="#3F3D56"/>
        <path d="M73.7808 198.936H94.6791C95.4181 198.936 96.1269 198.645 96.6494 198.127C97.172 197.609 97.4656 196.906 97.4656 196.174C97.4656 195.442 97.172 194.739 96.6494 194.221C96.1269 193.703 95.4181 193.412 94.6791 193.412H87.0164V146.808H81.4435V193.412H73.7808C73.0418 193.412 72.3331 193.703 71.8105 194.221C71.2879 194.739 70.9944 195.442 70.9944 196.174C70.9944 196.906 71.2879 197.609 71.8105 198.127C72.3331 198.645 73.0418 198.936 73.7808 198.936Z" fill="#3F3D56"/>
        <path d="M72.1011 59.0268L72.5265 61.7298C72.7278 63.0405 73.4566 72.2995 72.9166 73.4041C72.8691 71.3417 69.1959 68.0991 66.8159 68.8395L63.0809 69.7072L60.7627 70.2465L58.8759 70.679L53.3932 71.9314C53.3836 71.8649 53.3767 71.7942 53.3671 71.7277C53.3541 71.6438 53.3412 71.5599 53.3249 71.4768C53.2228 70.9391 53.0366 70.4228 52.7738 69.9485C52.746 70.5838 52.5666 71.2017 52.252 71.746C52.2434 71.7602 52.236 71.7751 52.2297 71.7905C52.1323 71.9553 52.0248 72.1133 51.908 72.2637C51.9026 72.2676 51.8977 72.2723 51.8934 72.2776C51.8934 72.2776 50.7669 53.5013 50.8849 53.3281C50.9713 53.2049 51.0583 53.0852 51.1494 52.9682C51.2398 52.8478 51.3275 52.7316 51.4219 52.6139C51.4339 52.6028 51.4442 52.5896 51.4522 52.575C51.7165 52.2479 51.9963 51.935 52.2907 51.6375C52.3772 51.5503 52.4671 51.4625 52.5569 51.3747C53.9285 50.0478 55.5674 49.0594 57.3527 48.4823C57.5541 48.4176 57.7635 48.3583 57.9762 48.2984C58.1862 48.2426 58.4003 48.1896 58.6157 48.1435L58.6886 48.1279C58.7913 48.1059 58.898 48.0867 59.0014 48.0682C59.1313 48.044 59.2619 48.0233 59.3899 48.0068C61.051 47.7566 62.7432 47.856 64.3671 48.2993C64.3704 48.2985 64.3711 48.302 64.3744 48.3013C65.7299 48.6717 67.0182 49.2716 68.1883 50.0773C70.2122 51.4745 71 53.7535 71.5595 56.3124C71.7556 57.191 71.9207 58.1051 72.1011 59.0268Z" fill="#2F2E41"/>
        <path d="M93.2302 179.972L96.7139 181.914L105.936 168.824L100.794 165.957L93.2302 179.972Z" fill="#FFB6B6"/>
        <path d="M94.5468 175.532L101.102 177.531L100.059 180.206L104.553 186.56C104.775 186.874 104.889 187.248 104.877 187.629C104.865 188.01 104.728 188.377 104.486 188.677C104.245 188.977 103.911 189.194 103.534 189.296C103.157 189.398 102.756 189.38 102.391 189.245L94.7597 186.421L94.4764 183.288L92.9308 185.744L90.0536 184.679L94.5468 175.532Z" fill="#2F2E41"/>
        <path d="M112.393 121.165C111.829 121.301 111.242 121.313 110.672 121.2C110.103 121.087 109.566 120.852 109.098 120.512C108.631 120.172 108.245 119.735 107.967 119.231C107.689 118.727 107.526 118.17 107.49 117.597L77.3475 106.884L82.8793 102.127L111.489 113.382C112.466 113.386 113.408 113.743 114.137 114.388C114.865 115.032 115.329 115.917 115.44 116.877C115.551 117.836 115.303 118.803 114.741 119.593C114.18 120.383 113.344 120.943 112.393 121.165Z" fill="#FFB6B6"/>
        <path d="M69.2107 79.7871C69.2107 79.7871 64.0545 79.9001 63.5961 85.7588C63.1376 91.6174 74.3884 106.109 76.1316 108.498C77.8747 110.888 97.2367 113.83 97.2367 113.83L103.819 109.074C96.9026 104.614 90.5909 101.194 86.355 101.348L69.2107 79.7871Z" fill="#6C63FF"/>
        <path d="M62.5236 105.754L63.7778 111.021C63.7778 111.021 63.7901 115.877 64.6701 116.772C65.544 117.663 84.7594 115.874 84.7594 115.874C84.7594 115.874 82.7221 108.049 82.7492 102.127L62.5236 105.754Z" fill="#FFB6B6"/>
        <path d="M103.01 174.468L96.092 170.636C95.9604 161.571 101.375 149.304 107.797 136.454C93.4344 138.942 79.8847 139.739 68.1649 136.729C66.2408 136.218 64.594 134.964 63.5802 133.24C62.5665 131.515 62.2673 129.458 62.7472 127.514C62.7929 127.323 62.8456 127.134 62.9055 126.947C64.3081 122.637 61.163 119.936 64.0558 115.196C71.6641 112.579 78.8918 111.84 85.501 114.151L89.6422 123.371L110.168 120.696C111.16 120.577 112.165 120.657 113.126 120.93C114.087 121.204 114.985 121.666 115.768 122.291C116.551 122.916 117.203 123.69 117.687 124.57C118.171 125.45 118.477 126.417 118.589 127.417C118.616 127.641 118.634 127.867 118.643 128.093C114.492 147.687 109.838 165.318 103.01 174.468Z" fill="#2F2E41"/>
        <path d="M63.8933 68.4434C68.502 67.4959 71.4737 62.9741 70.5306 58.3437C69.5876 53.7133 65.087 50.7277 60.4782 51.6751C55.8695 52.6226 52.8979 57.1444 53.8409 61.7748C54.7839 66.4053 59.2845 69.3909 63.8933 68.4434Z" fill="#FFB6B6"/>
        <path d="M59.7371 71.7453L67.6697 71.2792C68.0043 71.2595 68.3366 71.3442 68.6205 71.5215C68.9044 71.6987 69.1256 71.9597 69.2534 72.268L71.4952 77.6768L80.8121 85.3409C80.8121 85.3409 84.5009 90.0129 84.5095 96.0466C84.518 102.08 85.8182 116.046 85.8182 116.046C85.8182 116.046 80.4346 108.504 77.1117 110.51C76.5463 110.851 76.3475 111.549 75.7553 111.902C75.46 112.078 74.7775 111.907 74.4793 112.083C69.9003 114.788 65.125 117.431 64.6788 116.968C63.8027 116.058 62.74 111.408 62.74 111.408L55.4787 84.8551C55.085 83.458 55.0068 81.9915 55.2498 80.5608C55.4927 79.1301 56.0507 77.7706 56.8838 76.5798C57.3911 75.869 57.9226 75.3401 58.4165 75.2527C59.5256 75.0176 58.9357 72.5437 59.7371 71.7453Z" fill="#6C63FF"/>
        <path d="M126.894 191.489L130.29 189.107L122.596 174.468L117.584 177.982L126.894 191.489Z" fill="#FFB6B6"/>
        <path d="M127.113 181.532L121.91 186.17C113.636 176.977 107.381 164.084 102.081 149.443C88.1922 145.388 77.7186 138.846 68.5753 131.08C65.4735 128.463 63.1482 125.101 65.7937 121.913C65.9173 121.764 66.0465 121.62 66.1811 121.48C69.3046 118.28 77.2256 118.89 81.8649 115.957L92.2285 127.003L91.5766 129.964L111.043 136.539C111.979 136.866 112.842 137.375 113.58 138.036C114.318 138.698 114.918 139.498 115.345 140.392C115.771 141.285 116.016 142.254 116.065 143.243C116.114 144.231 115.967 145.219 115.631 146.151C115.558 146.361 115.476 146.568 115.385 146.772L127.113 181.532Z" fill="#2F2E41"/>
        <path d="M124.996 190.26L130.426 186.17L132.113 188.492L140.085 188.468C140.479 188.467 140.862 188.586 141.18 188.809C141.498 189.031 141.733 189.345 141.852 189.704C141.97 190.063 141.965 190.449 141.838 190.805C141.711 191.162 141.468 191.47 141.145 191.685L134.4 196.17L131.568 194.646L132.783 197.245L130.24 198.936L124.996 190.26Z" fill="#2F2E41"/>
        <path d="M71.6897 137.974C71.1474 137.75 70.6623 137.414 70.2684 136.988C69.8744 136.562 69.5813 136.057 69.4096 135.509C69.238 134.96 69.1919 134.382 69.2748 133.815C69.3576 133.248 69.5673 132.705 69.8891 132.225L51.9351 105.868L59.3542 105.319L75.7291 131.206C76.5221 131.785 77.0691 132.627 77.2664 133.573C77.4638 134.518 77.2978 135.501 76.7999 136.335C76.3019 137.17 75.5067 137.797 74.5649 138.099C73.623 138.401 72.6 138.357 71.6897 137.974Z" fill="#FFB6B6"/>
        <path d="M61.702 78.6299C61.702 78.6299 57.4268 75.6787 53.4757 80.0691C49.5247 84.4595 49.8546 102.624 49.8175 105.553C49.8058 106.47 51.1705 108.449 53.0506 110.735C53.8947 111.762 54.8427 112.85 55.8166 113.932C56.3803 114.558 55.8946 115.861 56.4606 116.469C57.0234 117.074 58.6379 116.985 59.1733 117.546C61.7145 120.212 63.779 122.241 63.779 122.241L72.0517 122.34C72.145 116.371 67.9336 111.043 62.523 105.894L61.702 78.6299Z" fill="#6C63FF"/>
        <path d="M73.1121 55.6746C72.7889 55.8341 72.4754 55.9879 72.1674 56.1335C70.9315 56.7404 69.6542 57.2595 68.3452 57.6869C68.1273 57.0949 67.795 56.5516 67.3672 56.0879C67.4767 56.7283 67.4209 57.386 67.2051 57.9989C65.2236 58.4892 63.1437 58.4089 61.206 57.7675C62.4732 60.1117 63.4095 65.0514 63.3413 69.4567C63.3116 71.7859 62.9961 73.9653 62.307 75.5317L61.4215 72.8402C61.3394 71.8788 61.1743 70.9262 60.9282 69.9931C60.3344 67.3748 59.7801 69.1255 58.9641 70.4233L53.2568 71.6691C53.2468 71.6029 53.2396 71.5326 53.2296 71.4664C53.2161 71.383 53.2026 71.2995 53.1857 71.2168C53.0795 70.6821 52.8856 70.1685 52.612 69.6968C52.5831 70.3286 52.3964 70.9433 52.0689 71.4846C52.0599 71.4987 52.0522 71.5135 52.0456 71.5289C51.9443 71.6928 51.8324 71.85 51.7107 71.9995C51.7051 72.0034 51.7 72.0081 51.6956 72.0134C48.0108 72.506 45.4277 53.5218 50.6465 53.1685C50.7982 53.1583 50.827 52.927 50.9211 52.8072C51.0152 52.6874 51.1065 52.5718 51.2047 52.4548C51.2173 52.4437 51.228 52.4306 51.2363 52.416C51.5152 52.0933 51.8039 51.7829 52.1091 51.4835C52.1992 51.3969 52.2927 51.3095 52.3863 51.2222C53.8185 49.9088 55.5235 48.9276 57.3793 48.3487C57.5889 48.2843 57.8061 48.2219 58.0275 48.1623C58.2462 48.1068 58.469 48.0541 58.6932 48.0083L58.7691 47.9927C58.8761 47.9709 58.9872 47.9518 59.0948 47.9334C59.23 47.9093 59.366 47.8887 59.4992 47.8722C59.9993 48.1241 60.4272 48.4986 60.7429 48.9609L64.3891 48.2155C64.4857 48.1957 64.583 48.1794 64.681 48.1666L64.6879 48.1652C69.24 47.4033 72.1669 51.0599 73.1121 55.6746Z" fill="#2F2E41"/>
        <path d="M53.765 52.8388C52.9749 53.4489 52.1437 54.0774 51.1796 54.2286C50.2155 54.3798 49.0868 53.8812 48.82 52.8786C48.4938 51.6527 49.5285 50.5365 50.4585 49.7398L53.4075 47.2135C53.9475 46.7011 54.5571 46.2795 55.2155 45.9629C55.5462 45.8072 55.9054 45.7331 56.2665 45.746C56.6276 45.7589 56.9814 45.8585 57.3016 46.0375C57.6186 46.2665 57.8755 46.5784 58.0478 46.9437C58.2202 47.3089 58.3022 47.7153 58.2862 48.1241C58.2441 48.9434 57.9914 49.7344 57.5559 50.4097C57.0084 51.3226 56.294 52.1075 55.4556 52.7172C54.6172 53.3269 53.6721 53.7488 52.6773 53.9576" fill="#2F2E41"/>
        <path d="M74.6725 111.702H54.6101C53.9006 111.702 53.2202 112.001 52.7186 112.533C52.2169 113.065 51.9351 113.786 51.9351 114.539C51.9351 115.291 52.2169 116.013 52.7186 116.545C53.2202 117.077 53.9006 117.376 54.6101 117.376H61.9663V139.361H67.3163V117.376H74.6725C75.3819 117.376 76.0623 117.077 76.564 116.545C77.0656 116.013 77.3475 115.291 77.3475 114.539C77.3475 113.786 77.0656 113.065 76.564 112.533C76.0623 112.001 75.3819 111.702 74.6725 111.702Z" fill="#3F3D56"/>
        <path d="M151.059 199.879L0.459032 200C0.350843 200 0.247195 199.95 0.170804 199.862C0.0944137 199.773 0.0515137 199.654 0.0515137 199.529C0.0515137 199.404 0.0944137 199.284 0.170804 199.196C0.247195 199.108 0.350843 199.058 0.459032 199.057L151.059 198.936C151.168 198.936 151.271 198.986 151.348 199.074C151.424 199.163 151.467 199.282 151.467 199.407C151.467 199.532 151.424 199.652 151.348 199.74C151.271 199.828 151.168 199.878 151.059 199.879Z" fill="#CACACA"/>
        <path d="M194.88 153.697L198.235 157.447L213.939 145.959L208.986 140.425L194.88 153.697Z" fill="#FFB6B6"/>
        <path d="M201.745 159.25V159.247L201.412 155.636L201.261 155.565L200.376 155.14L196.205 153.146L196.117 153.051L195.28 152.127L190.644 156.427L196.924 163.343L201.23 168.085L201.375 167.949C201.965 167.403 202.443 166.744 202.781 166.011C203.119 165.278 203.31 164.485 203.345 163.677C203.379 162.869 203.255 162.062 202.981 161.303C202.706 160.543 202.286 159.845 201.745 159.25H201.745Z" fill="#2F2E41"/>
        <path d="M177.938 190.091L182.737 191.489L190.644 174.403L183.561 172.34L177.938 190.091Z" fill="#FFB6B6"/>
        <path d="M189.895 194.13C189.507 193.426 188.976 192.804 188.334 192.299C187.692 191.794 186.951 191.417 186.155 191.188L183.968 188.297L183.797 188.311L178.016 188.819L177.887 188.782L176.659 188.424L174.761 194.41L190.31 198.936L190.37 198.745C190.612 197.984 190.695 197.184 190.614 196.392C190.533 195.6 190.288 194.831 189.895 194.13Z" fill="#2F2E41"/>
        <path d="M216.588 97.8721C216.588 97.8721 246.846 127.034 227.717 136.061H221.805C221.805 136.061 220.028 129.76 215.96 124.446C215.402 123.717 213.309 123.865 212.728 123.154C209.179 118.812 205.332 115.083 202.676 115.231L203.311 135.38L204.34 142.567C204.88 146.282 189.637 178.723 189.637 178.723L180.056 174.964C180.056 174.964 190.038 148.245 190.155 144.393L182.155 102.038L216.588 97.8721Z" fill="#2F2E41"/>
        <path d="M218.983 99.5536C218.827 99.7775 218.625 99.9634 218.39 100.098C218.002 100.32 217.582 100.477 217.145 100.565C210.296 102.139 187.921 105.401 182.113 103.845C181.4 103.657 180.934 103.391 180.783 103.043C180.296 101.94 180.359 97.2823 180.645 91.6582C180.696 90.6045 181.844 89.4636 181.913 88.3611C181.961 87.5343 180.931 86.7562 180.986 85.9154C181.365 80.2285 181.855 74.4334 182.182 70.77C182.389 68.415 182.53 66.9427 182.53 66.9427L178.997 44.3938L179.162 44.1182L179.349 44.024L190.741 38.3162L191.361 36.7112C191.541 36.2491 191.854 35.8522 192.259 35.5717C192.664 35.2912 193.142 35.1401 193.633 35.1377L201.137 35.1063C201.527 35.1042 201.911 35.1961 202.258 35.3745C202.605 35.5529 202.905 35.8126 203.133 36.1321L205.167 38.9825L218.61 47.7048L218.559 47.8653L212.25 67.2951L212.219 68.8093V68.8127L211.985 80.9891L212.637 82.6393L211.902 85.3467C211.902 85.3467 212.24 88.5111 214.05 90.8627C215.691 92.9979 217.779 95.2238 218.724 97.0311V97.0346C219.248 98.0324 219.424 98.8977 218.983 99.5536Z" fill="#6C63FF"/>
        <path d="M229.822 134.668L228.18 136.671C228.18 136.671 213.085 146.867 212.567 147.82L210.181 150L204.409 144.042L207.411 140.41C209.813 137.502 212.917 135.208 216.45 133.728L221.051 129.787L229.822 134.668Z" fill="#2F2E41"/>
        <path d="M219.465 105.133L216.768 78.3709L216.057 67.3566L223.603 65.9573C223.603 65.9573 223.304 73.8328 224.293 78.2763C225.269 82.661 224.422 104.545 224.362 105.13C224.916 105.638 225.307 106.307 225.482 107.048C225.658 107.789 225.61 108.567 225.345 109.279C225.08 109.992 224.61 110.605 223.998 111.037C223.386 111.47 222.66 111.702 221.916 111.702C221.173 111.702 220.447 111.471 219.834 111.039C219.222 110.607 218.751 109.995 218.485 109.283C218.22 108.571 218.171 107.793 218.346 107.052C218.521 106.311 218.911 105.641 219.465 105.133Z" fill="#FFB6B6"/>
        <path d="M227.136 84.1149L217.42 86.17L216.57 82.7089L215.58 81.6352L213.601 71.0422L210.762 64.8369L211.5 43.6169L218.711 47.5251L218.72 47.532C219.822 48.7554 220.582 50.5065 221.846 52.2635C225.829 57.8 226.27 71.2534 226.15 78.6224C226.148 78.7433 226.267 78.871 226.41 79.0053C227.088 79.6414 227.53 80.4972 227.662 81.4281C227.795 82.359 227.609 83.308 227.136 84.1149V84.1149Z" fill="#6C63FF"/>
        <path d="M175.589 106.196L178.285 79.4347L178.997 68.4205L171.45 67.0212C171.45 67.0212 171.749 74.8967 170.761 79.3401C169.785 83.7249 170.631 105.609 170.691 106.194C170.137 106.702 169.747 107.371 169.571 108.112C169.396 108.853 169.443 109.631 169.709 110.343C169.974 111.055 170.443 111.668 171.056 112.101C171.668 112.534 172.394 112.765 173.137 112.766C173.881 112.766 174.607 112.535 175.219 112.103C175.832 111.671 176.302 111.058 176.568 110.346C176.834 109.634 176.883 108.856 176.708 108.115C176.533 107.374 176.143 106.705 175.589 106.196Z" fill="#FFB6B6"/>
        <path d="M184.291 66.369L182.186 70.872L181.451 72.4402L179.472 82.7992L178.484 83.848L177.633 87.2338L177.233 87.1518L170.021 85.6588L167.919 85.2249C167.445 84.4358 167.259 83.5074 167.391 82.5967C167.523 81.6859 167.965 80.8487 168.644 80.2265C168.787 80.0967 168.907 79.9703 168.904 79.8507C168.784 72.6452 169.225 59.4881 173.207 54.0728C174.471 52.3543 175.23 50.6426 176.334 49.4468C176.338 49.4434 176.338 49.44 176.341 49.44L179.027 45.0429L179.192 44.773L179.376 44.6808L184.291 66.369Z" fill="#6C63FF"/>
        <path d="M197.527 32.9786C203.082 32.9786 207.586 28.4539 207.586 22.8723C207.586 17.2907 203.082 12.7659 197.527 12.7659C191.971 12.7659 187.468 17.2907 187.468 22.8723C187.468 28.4539 191.971 32.9786 197.527 32.9786Z" fill="#FFB6B6"/>
        <path d="M208.639 18.9477C208.606 17.23 208.417 15.0325 207.252 13.2801C206.268 11.8058 204.285 10.6375 202.436 11.2217C202.457 10.84 202.375 10.4598 202.199 10.1234C202.023 9.78703 201.76 9.50762 201.439 9.31625C200.739 8.87466 199.897 8.79469 199.153 8.72167C197.277 8.54086 195.334 8.3531 193.435 8.72514C191.303 9.14239 189.559 10.2759 188.653 11.8371L188.632 11.8858L188.447 12.8107C188.423 12.9347 188.372 13.0518 188.299 13.1538C188.227 13.2559 188.134 13.3405 188.026 13.4018C187.919 13.464 187.799 13.501 187.677 13.51C187.554 13.519 187.431 13.4999 187.316 13.454C187.19 13.4053 187.054 13.3913 186.922 13.4135C186.789 13.4356 186.665 13.493 186.56 13.5801C186.456 13.6672 186.375 13.781 186.326 13.9101C186.278 14.0392 186.262 14.1792 186.282 14.3163L186.332 14.6849L185.797 14.5805C185.663 14.5537 185.524 14.5643 185.395 14.6114C185.265 14.6585 185.151 14.7403 185.063 14.8484C184.974 14.9565 184.916 15.087 184.893 15.2263C184.87 15.3657 184.883 15.5088 184.931 15.641L185.08 16.0618C184.969 16.0633 184.86 16.0878 184.759 16.1338C184.657 16.1798 184.566 16.2463 184.49 16.3295C184.382 16.4507 184.314 16.6043 184.296 16.768C184.278 16.9317 184.311 17.0972 184.389 17.2405C184.989 18.2982 185.84 19.1812 186.861 19.8066C187.32 20.0922 187.816 20.311 188.333 20.4568C188.441 20.4881 188.552 20.5159 188.666 20.5402C192.801 21.4603 197.063 21.5923 201.244 20.9297C200.998 21.7813 200.903 22.6719 200.964 23.5583C201.099 24.6675 201.729 25.582 202.571 25.888C202.762 25.9546 202.958 26.0035 203.157 26.034C203.348 26.0659 203.536 26.1136 203.719 26.1766C203.99 26.279 204.23 26.4535 204.414 26.6823C204.599 26.9112 204.722 27.1863 204.77 27.4799C204.819 27.7735 204.791 28.0751 204.691 28.3542C204.59 28.6333 204.42 28.8801 204.197 29.0695C204.197 29.0695 205.08 29.824 205.191 29.7858C205.624 29.588 205.987 29.2548 206.228 28.833C207.908 26.3365 208.72 23.0124 208.639 18.9477Z" fill="#2F2E41"/>
        </g>
        <defs>
        <clipPath id="clip0_2_100">
        <rect width="266" height="200" fill="white"/>
        </clipPath>
        </defs>
        
  </g>
        
        <g id="img-3">
                <g clip-path="url(#clip0_2_192)">
                <path d="M50.572 100.901C50.3762 101.184 50.1262 101.417 49.8398 101.582C49.5533 101.748 49.2373 101.842 48.914 101.859C48.5908 101.876 48.2681 101.814 47.9687 101.679C47.6694 101.544 47.4006 101.338 47.1814 101.076L39.9675 104.527L40.6702 100.098L47.4129 97.5002C47.8372 97.1243 48.3722 96.9326 48.9164 96.9615C49.4606 96.9905 49.9763 97.2379 50.3657 97.6571C50.7551 98.0762 50.9912 98.6379 51.0292 99.2357C51.0673 99.8335 50.9046 100.426 50.572 100.901V100.901Z" fill="#A0616A"/>
                <path d="M45.7581 102.283L29.0026 110.492L28.9666 110.478L9.86961 102.993C8.44714 102.176 7.36266 100.791 6.83822 99.1226C6.31378 97.4542 6.38906 95.6285 7.04864 94.0192C7.41425 93.13 7.94693 92.3361 8.61162 91.6897C9.27631 91.0433 10.0579 90.5591 10.9051 90.2688C11.7522 89.9786 12.6456 89.889 13.5265 90.0059C14.4074 90.1228 15.2557 90.4436 16.0158 90.9471L30.2275 100.363L44.0085 98.3983L45.7581 102.283Z" fill="#3F3D56"/>
                <path d="M52.7779 48.2373C46.4437 32.828 46.6772 13.2958 56.5077 0.29274C59.7965 18.3237 68.7784 34.494 81.8639 45.9427C86.9251 50.3379 92.9704 54.6468 94.3529 61.5743C95.2133 65.8847 93.9938 70.444 91.8857 74.1987C89.7773 77.9535 86.8386 81.0423 83.9333 84.0862L83.6074 85.1279C70.9655 75.5016 59.1121 63.6467 52.7779 48.2373Z" fill="#F0F0F0"/>
                <path d="M56.7813 0.480754C54.519 14.1056 56.1996 28.6136 61.6986 41.0965C62.8874 43.7953 64.307 46.4192 66.2076 48.5897C68.0749 50.6898 70.4195 52.2016 72.9978 52.9681C75.3887 53.7358 77.9152 54.2167 80.0948 55.6103C82.3922 57.0792 83.8179 59.5439 84.3733 62.3704C85.0529 65.8287 84.5621 69.3493 83.9733 72.7739C83.3196 76.5761 82.5859 80.5141 83.5331 84.3364C83.6479 84.7995 82.9878 84.9683 82.8732 84.5059C81.2251 77.8558 84.4294 71.297 83.9815 64.611C83.7725 61.4912 82.7074 58.4217 80.2752 56.6141C78.1483 55.0335 75.5434 54.5352 73.1164 53.7808C70.5681 52.9887 68.2795 51.7788 66.332 49.7718C64.3399 47.7188 62.8241 45.1504 61.5777 42.4969C58.7922 36.4566 56.8875 29.9721 55.9335 23.281C54.8062 15.6512 54.8739 7.86549 56.1337 0.260774C56.2119 -0.209872 56.859 0.0131759 56.7813 0.480754Z" fill="white"/>
                <path d="M59.7166 37.1428C57.6645 37.8661 55.4454 37.7636 53.4557 36.8536C51.466 35.9436 49.8351 34.2854 48.8544 32.175C48.6573 31.7473 49.2525 31.3903 49.4498 31.8186C50.3597 33.7857 51.879 35.3302 53.7334 36.1734C55.5878 37.0166 57.6552 37.103 59.5624 36.417C59.9771 36.2685 60.1288 36.9951 59.7166 37.1428L59.7166 37.1428Z" fill="white"/>
                <path d="M71.7389 52.7546C73.7894 48.4667 74.2952 43.4864 73.1553 38.8066C73.042 38.343 73.7021 38.1741 73.8152 38.6371C74.9932 43.5094 74.4573 48.6911 72.3145 53.148C72.11 53.5726 71.5355 53.177 71.7389 52.7546Z" fill="white"/>
                <path d="M55.6774 15.8934C56.5244 15.7955 57.3361 15.4677 58.0395 14.9395C58.7429 14.4114 59.316 13.6993 59.7073 12.8674C59.9068 12.4401 60.4811 12.8362 60.2829 13.2608C59.8467 14.1777 59.2128 14.9632 58.4369 15.5487C57.6609 16.1341 56.7664 16.5016 55.8315 16.6192C55.7442 16.6384 55.6536 16.6203 55.578 16.5686C55.5024 16.517 55.4475 16.4356 55.4245 16.341C55.4045 16.2448 55.4199 16.1438 55.4672 16.06C55.5146 15.9762 55.5901 15.9163 55.6774 15.8934Z" fill="white"/>
                <path d="M108.568 0.443672C108.45 0.714378 108.333 0.98508 108.218 1.26132C106.653 4.90977 105.36 8.69201 104.352 12.5707C104.27 12.8693 104.19 13.1732 104.116 13.4737C101.778 22.8469 101.043 32.616 101.947 42.2844C102.31 46.1314 102.939 49.9423 103.828 53.6843C105.056 58.8521 106.761 64.3479 106.376 69.5081C106.342 70.047 106.277 70.583 106.182 71.113L84.7882 85.4845C84.7246 85.4903 84.6638 85.5017 84.6001 85.5077L83.7698 86.1244C83.7117 85.935 83.6551 85.7371 83.597 85.5476C83.5629 85.4379 83.5335 85.3249 83.4994 85.2151C83.4782 85.141 83.4572 85.0666 83.4341 85.001C83.427 84.9763 83.4201 84.9515 83.4159 84.9322C83.3929 84.8666 83.3778 84.803 83.3578 84.7427C83.0389 83.6376 82.7265 82.528 82.4206 81.4141C82.4176 81.4087 82.4176 81.4087 82.4194 81.4001C80.1083 72.9059 78.4217 64.1249 78.0005 55.3415C77.9879 55.0772 77.9721 54.8078 77.9693 54.5369C77.7994 50.5766 77.9242 46.6077 78.3422 42.6697C78.5774 40.5142 78.9117 38.3732 79.3438 36.2549C80.4698 30.7838 82.3712 25.5416 84.9783 20.7204C90.177 11.1102 98.1122 3.43559 107.824 0.648619C108.073 0.577485 108.316 0.509387 108.568 0.443672Z" fill="#F0F0F0"/>
                <path d="M108.686 0.774631C99.4208 10.1553 92.8206 22.8521 90.3778 36.4604C89.8496 39.4024 89.5467 42.4375 89.876 45.4291C90.2173 48.3424 91.2617 51.102 92.9007 53.4212C94.3895 55.6174 96.1435 57.6743 97.1209 60.2303C98.1511 62.9244 97.9402 65.8365 96.8364 68.4611C95.4858 71.6724 93.1667 74.1584 90.8219 76.5029C88.2185 79.1059 85.4769 81.7643 84.1408 85.4435C83.9789 85.8893 83.3595 85.587 83.5211 85.1418C85.8457 78.7407 91.9946 75.6256 95.297 69.9906C96.838 67.3612 97.6679 64.2051 96.7154 61.1513C95.8825 58.4809 94.0754 56.3581 92.5505 54.1487C90.9494 51.8288 89.7845 49.3473 89.3282 46.4553C88.8615 43.497 89.0572 40.4425 89.5147 37.4985C90.5972 30.8311 92.6262 24.3923 95.5273 18.4181C98.804 11.5796 103.12 5.40793 108.289 0.170161C108.609 -0.153878 109.004 0.452708 108.686 0.774625V0.774631Z" fill="white"/>
                <path d="M90.9603 31.9908C88.9257 31.2095 87.2098 29.6583 86.1191 27.6142C85.0285 25.5701 84.6341 23.1662 85.0064 20.8318C85.0832 20.3597 85.7538 20.4688 85.6769 20.9415C85.3266 23.1146 85.6942 25.3538 86.7133 27.255C87.7325 29.1562 89.3361 30.5941 91.2347 31.3093C91.6471 31.4652 91.3704 32.1459 90.9604 31.9908H90.9603Z" fill="white"/>
                <path d="M92.0126 52.4168C95.9971 50.3509 99.1273 46.7093 100.779 42.218C100.942 41.7728 101.562 42.075 101.399 42.5196C99.6719 47.1899 96.4075 50.9723 92.2568 53.112C91.8611 53.3156 91.619 52.6193 92.0126 52.4168Z" fill="white"/>
                <path d="M99.3671 12.3497C100.097 12.8322 100.924 13.1078 101.775 13.1518C102.626 13.1959 103.473 13.0069 104.241 12.602C104.634 12.393 104.876 13.0893 104.486 13.2969C103.635 13.7399 102.699 13.9474 101.759 13.901C100.819 13.8546 99.9036 13.5559 99.0928 13.0309C99.0126 12.9885 98.9501 12.9141 98.918 12.8228C98.886 12.7315 98.8867 12.6303 98.9201 12.5396C98.9568 12.4496 99.0244 12.3791 99.1081 12.3436C99.1918 12.308 99.2848 12.3102 99.3671 12.3497Z" fill="white"/>
                <path d="M190.597 56.3312C184.262 40.9218 184.496 21.3897 194.327 8.38661C197.616 26.4175 206.598 42.5879 219.684 54.0366C224.745 58.4318 230.791 62.7408 232.173 69.6682C233.034 73.9787 231.814 78.5379 229.706 82.2926C227.597 86.0475 224.659 89.1362 221.753 92.1802L221.427 93.2219C208.785 83.5955 196.931 71.7406 190.597 56.3312Z" fill="#F0F0F0"/>
                <path d="M194.6 8.57463C192.338 22.1995 194.018 36.7075 199.517 49.1905C200.706 51.8892 202.126 54.5132 204.026 56.6837C205.894 58.7838 208.238 60.2956 210.816 61.0621C213.207 61.8298 215.734 62.3106 217.913 63.7042C220.211 65.1732 221.637 67.6379 222.192 70.4644C222.872 73.9227 222.381 77.4434 221.792 80.8679C221.138 84.6702 220.405 88.6082 221.352 92.4305C221.467 92.8936 220.807 93.0624 220.692 92.5999C219.044 85.9498 222.248 79.391 221.8 72.705C221.591 69.5852 220.526 66.5157 218.094 64.7081C215.967 63.1275 213.362 62.6292 210.935 61.8748C208.387 61.0827 206.098 59.8728 204.151 57.8658C202.159 55.8128 200.643 53.2444 199.396 50.5909C196.611 44.5505 194.706 38.066 193.752 31.3749C192.625 23.7451 192.693 15.9594 193.952 8.35465C194.031 7.884 194.678 8.10705 194.6 8.57463Z" fill="white"/>
                <path d="M197.535 45.2367C195.483 45.96 193.264 45.8575 191.274 44.9475C189.285 44.0375 187.654 42.3793 186.673 40.2689C186.476 39.8411 187.071 39.4842 187.268 39.9125C188.178 41.8795 189.698 43.424 191.552 44.2673C193.406 45.1105 195.474 45.1969 197.381 44.5109C197.796 44.3623 197.947 45.089 197.535 45.2367V45.2367Z" fill="white"/>
                <path d="M209.558 60.8485C211.608 56.5606 212.114 51.5802 210.974 46.9005C210.861 46.4369 211.521 46.268 211.634 46.731C212.812 51.6033 212.276 56.785 210.133 61.2419C209.929 61.6665 209.354 61.2708 209.558 60.8485Z" fill="white"/>
                <path d="M193.496 23.9872C194.343 23.8893 195.155 23.5616 195.858 23.0334C196.562 22.5052 197.135 21.7932 197.526 20.9612C197.725 20.5339 198.3 20.9301 198.102 21.3546C197.665 22.2716 197.032 23.0571 196.256 23.6425C195.48 24.228 194.585 24.5955 193.65 24.713C193.563 24.7322 193.472 24.7142 193.397 24.6625C193.321 24.6108 193.266 24.5294 193.243 24.4349C193.223 24.3387 193.239 24.2377 193.286 24.1538C193.333 24.07 193.409 24.0101 193.496 23.9872Z" fill="white"/>
                <path d="M246.387 8.53754C246.269 8.80825 246.151 9.07896 246.036 9.3552C244.471 13.0037 243.178 16.786 242.17 20.6647C242.088 20.9632 242.009 21.2671 241.935 21.5676C239.597 30.9409 238.861 40.7101 239.766 50.3786C240.129 54.2256 240.758 58.0366 241.647 61.7786C242.875 66.9465 244.58 72.4423 244.195 77.6026C244.16 78.1414 244.095 78.6774 244 79.2075L222.607 93.5791C222.543 93.5849 222.482 93.5962 222.419 93.6022L221.588 94.219C221.53 94.0295 221.474 93.8316 221.416 93.6422C221.382 93.5324 221.352 93.4194 221.318 93.3097C221.297 93.2355 221.276 93.1611 221.253 93.0955C221.246 93.0709 221.239 93.046 221.235 93.0267C221.212 92.9611 221.196 92.8975 221.176 92.8373C220.858 91.7321 220.545 90.6225 220.239 89.5086C220.236 89.5032 220.236 89.5032 220.238 89.4946C217.927 81.0004 216.24 72.2193 215.819 63.4358C215.807 63.1715 215.791 62.9021 215.788 62.6312C215.618 58.6709 215.743 54.7019 216.161 50.7639C216.396 48.6084 216.73 46.4674 217.162 44.349C218.288 38.8779 220.19 33.6356 222.797 28.8144C227.996 19.2042 235.931 11.5295 245.643 8.74249C245.891 8.67136 246.135 8.60326 246.387 8.53754Z" fill="#F0F0F0"/>
                <path d="M246.504 8.86849C237.239 18.2491 230.639 30.9457 228.196 44.5538C227.668 47.4959 227.365 50.5309 227.695 53.5224C228.036 56.4357 229.08 59.1953 230.719 61.5145C232.208 63.7107 233.962 65.7676 234.94 68.3235C235.97 71.0176 235.759 73.9297 234.655 76.5542C233.305 79.7655 230.985 82.2515 228.641 84.5959C226.037 87.1989 223.296 89.8573 221.959 93.5364C221.798 93.9822 221.178 93.6799 221.34 93.2348C223.664 86.8337 229.813 83.7187 233.116 78.0837C234.657 75.4544 235.487 72.2983 234.534 69.2445C233.701 66.5741 231.894 64.4514 230.369 62.242C228.768 59.9221 227.603 57.4407 227.147 54.5487C226.68 51.5904 226.876 48.5359 227.333 45.5919C228.416 38.9246 230.445 32.4859 233.346 26.5118C236.623 19.6733 240.939 13.5017 246.108 8.26402C246.428 7.93999 246.822 8.54657 246.504 8.86848V8.86849Z" fill="white"/>
                <path d="M228.777 40.0847C226.743 39.3034 225.028 37.7522 223.937 35.7081C222.847 33.6639 222.453 31.26 222.825 28.9257C222.902 28.4536 223.572 28.5627 223.495 29.0354C223.145 31.2084 223.513 33.4476 224.531 35.3488C225.55 37.25 227.153 38.688 229.051 39.4032C229.463 39.5591 229.187 40.2398 228.777 40.0847Z" fill="white"/>
                <path d="M229.83 60.5106C233.815 58.4448 236.946 54.8032 238.598 50.3118C238.761 49.8667 239.38 50.1689 239.217 50.6135C237.49 55.2838 234.225 59.0662 230.074 61.2059C229.678 61.4095 229.436 60.7132 229.83 60.5106Z" fill="white"/>
                <path d="M237.186 20.4436C237.916 20.926 238.743 21.2017 239.594 21.2457C240.445 21.2897 241.292 21.1008 242.06 20.6959C242.453 20.4869 242.695 21.1832 242.304 21.3908C241.454 21.8338 240.518 22.0412 239.578 21.9949C238.638 21.9485 237.722 21.6498 236.912 21.1248C236.831 21.0824 236.769 21.0079 236.737 20.9167C236.705 20.8254 236.705 20.7241 236.739 20.6334C236.776 20.5434 236.843 20.473 236.927 20.4375C237.01 20.4019 237.104 20.4041 237.186 20.4436Z" fill="white"/>
                <path d="M62.4886 157.587H225.455V53.8212C225.455 53.0437 225.173 52.2983 224.674 51.7486C224.174 51.1988 223.496 50.8896 222.789 50.8887H65.155C64.4481 50.8896 63.7704 51.1988 63.2705 51.7486C62.7706 52.2983 62.4894 53.0437 62.4886 53.8212V157.587Z" fill="#CACACA"/>
                <path d="M220.42 54.9445H67.5237V150.412H220.42V54.9445Z" fill="white"/>
                <path d="M62.3468 154.78V167.585C62.3468 168.115 62.4419 168.641 62.6266 169.132C62.8113 169.622 63.082 170.068 63.4233 170.443C63.7646 170.818 64.1697 171.116 64.6157 171.319C65.0616 171.522 65.5395 171.627 66.0222 171.627H126.172V196.898H125.373C125.311 196.898 125.249 196.911 125.191 196.938C125.133 196.964 125.08 197.003 125.036 197.051C124.991 197.1 124.956 197.158 124.932 197.222C124.908 197.286 124.896 197.354 124.896 197.423V199.18C124.896 199.249 124.908 199.318 124.932 199.381C124.956 199.445 124.991 199.503 125.036 199.552C125.08 199.601 125.133 199.639 125.191 199.666C125.249 199.692 125.311 199.706 125.373 199.706H162.714C162.777 199.706 162.839 199.692 162.897 199.666C162.955 199.639 163.007 199.601 163.052 199.552C163.096 199.503 163.131 199.445 163.155 199.381C163.179 199.318 163.191 199.249 163.191 199.18V197.423C163.191 197.354 163.179 197.286 163.155 197.222C163.131 197.158 163.096 197.1 163.052 197.051C163.007 197.003 162.955 196.964 162.897 196.938C162.839 196.911 162.777 196.898 162.714 196.898H161.915V171.627H222.065C222.548 171.627 223.026 171.522 223.472 171.319C223.918 171.116 224.323 170.818 224.664 170.443C225.005 170.068 225.276 169.622 225.461 169.132C225.645 168.641 225.741 168.116 225.741 167.585V154.78L62.3468 154.78Z" fill="#3F3D56"/>
                <path d="M115.067 102.157H77.8074C77.5477 102.156 77.2988 102.043 77.1152 101.841C76.9316 101.639 76.8283 101.365 76.828 101.08V84.4519C76.8283 84.1664 76.9316 83.8926 77.1152 83.6907C77.2988 83.4887 77.5477 83.3751 77.8074 83.3748H115.067C115.327 83.3751 115.576 83.4887 115.76 83.6906C115.943 83.8926 116.046 84.1664 116.047 84.4519V101.08C116.046 101.365 115.943 101.639 115.76 101.841C115.576 102.043 115.327 102.156 115.067 102.157Z" fill="#6C63FF"/>
                <path d="M111.52 110.133H81.3552C81.0435 110.133 80.7446 109.997 80.5242 109.755C80.3038 109.512 80.18 109.183 80.18 108.841C80.18 108.498 80.3038 108.169 80.5242 107.927C80.7446 107.684 81.0435 107.548 81.3552 107.548H111.52C113.035 107.525 113.05 110.157 111.52 110.133Z" fill="#E4E4E4"/>
                <path d="M111.519 116.057H81.3545C81.0428 116.057 80.7438 115.921 80.5234 115.679C80.303 115.436 80.1792 115.108 80.1792 114.765C80.1792 114.422 80.303 114.093 80.5234 113.851C80.7438 113.608 81.0428 113.472 81.3545 113.472H111.519C113.035 113.449 113.05 116.081 111.519 116.057Z" fill="#E4E4E4"/>
                <path d="M111.52 121.981H81.3552C81.0435 121.981 80.7446 121.845 80.5242 121.603C80.3038 121.361 80.18 121.032 80.18 120.689C80.18 120.346 80.3038 120.017 80.5242 119.775C80.7446 119.533 81.0435 119.396 81.3552 119.396H111.52C113.035 119.373 113.05 122.005 111.52 121.981Z" fill="#E4E4E4"/>
                <path d="M162.602 102.157H125.342C125.083 102.156 124.834 102.043 124.65 101.841C124.467 101.639 124.363 101.365 124.363 101.08V84.4519C124.363 84.1664 124.467 83.8926 124.65 83.6906C124.834 83.4887 125.083 83.3751 125.342 83.3748H162.602C162.862 83.3751 163.111 83.4887 163.295 83.6906C163.478 83.8926 163.581 84.1664 163.582 84.4519V101.08C163.581 101.365 163.478 101.639 163.295 101.841C163.111 102.043 162.862 102.156 162.602 102.157Z" fill="#6C63FF"/>
                <path d="M159.055 110.133H128.89C128.579 110.133 128.28 109.997 128.059 109.755C127.839 109.512 127.715 109.183 127.715 108.841C127.715 108.498 127.839 108.169 128.059 107.927C128.28 107.684 128.579 107.548 128.89 107.548H159.055C160.57 107.525 160.585 110.157 159.055 110.133Z" fill="#E4E4E4"/>
                <path d="M159.055 116.057H128.89C128.579 116.057 128.28 115.921 128.059 115.679C127.839 115.436 127.715 115.108 127.715 114.765C127.715 114.422 127.839 114.093 128.059 113.851C128.28 113.608 128.579 113.472 128.89 113.472H159.055C160.57 113.449 160.585 116.081 159.055 116.057Z" fill="#E4E4E4"/>
                <path d="M159.055 121.981H128.89C128.579 121.981 128.28 121.845 128.059 121.603C127.839 121.361 127.715 121.032 127.715 120.689C127.715 120.346 127.839 120.017 128.059 119.775C128.28 119.533 128.579 119.396 128.89 119.396H159.055C160.57 119.373 160.585 122.005 159.055 121.981Z" fill="#E4E4E4"/>
                <path d="M210.139 102.157H172.877C172.618 102.156 172.369 102.043 172.185 101.841C172.002 101.639 171.898 101.365 171.898 101.08V84.4519C171.898 84.1664 172.002 83.8926 172.185 83.6906C172.369 83.4887 172.618 83.3751 172.877 83.3748H210.139C210.399 83.3751 210.647 83.4887 210.831 83.6906C211.015 83.8926 211.118 84.1664 211.118 84.4519V101.08C211.118 101.365 211.015 101.639 210.831 101.841C210.647 102.043 210.399 102.156 210.139 102.157Z" fill="#6C63FF"/>
                <path d="M206.589 110.133H176.425C176.114 110.133 175.815 109.997 175.594 109.755C175.374 109.512 175.25 109.183 175.25 108.841C175.25 108.498 175.374 108.169 175.594 107.927C175.815 107.684 176.114 107.548 176.425 107.548H206.589C208.105 107.525 208.12 110.157 206.589 110.133Z" fill="#E4E4E4"/>
                <path d="M206.589 116.057H176.424C176.112 116.057 175.814 115.92 175.594 115.678C175.374 115.436 175.25 115.107 175.25 114.765C175.25 114.422 175.374 114.094 175.594 113.852C175.814 113.609 176.112 113.473 176.424 113.472H206.589C208.105 113.449 208.12 116.081 206.589 116.057Z" fill="#E4E4E4"/>
                <path d="M206.589 121.981H176.425C176.114 121.981 175.815 121.845 175.594 121.603C175.374 121.361 175.25 121.032 175.25 120.689C175.25 120.346 175.374 120.017 175.594 119.775C175.815 119.533 176.114 119.396 176.425 119.396H206.589C208.105 119.373 208.12 122.005 206.589 121.981Z" fill="#E4E4E4"/>
                <path d="M263.806 83.5994L263.908 104.441L264.324 104.415L264.718 112.131L263.947 112.178L263.969 116.813L264.586 116.8L264.711 124.522L264.008 124.537L264.343 192.546C264.35 194.327 263.715 196.038 262.576 197.304C261.437 198.57 259.888 199.288 258.269 199.299L189.963 199.706C188.343 199.714 186.787 199.016 185.636 197.763C184.485 196.511 183.833 194.807 183.822 193.026L183.286 84.0798C183.279 82.299 183.914 80.5878 185.053 79.3217C186.191 78.0556 187.74 77.3381 189.359 77.3267L257.666 76.9196C259.285 76.9122 260.841 77.6113 261.992 78.8635C263.143 80.1157 263.795 81.8188 263.806 83.5994Z" fill="#3F3D56"/>
                <path d="M258.368 195.014L189.821 195.423C189.322 195.425 188.842 195.209 188.488 194.823C188.133 194.437 187.932 193.912 187.928 193.364L187.388 83.6932C187.385 83.1443 187.581 82.6169 187.932 82.2267C188.283 81.8365 188.761 81.6153 189.26 81.6117L257.807 81.2029C258.306 81.2005 258.786 81.416 259.141 81.802C259.495 82.188 259.696 82.7131 259.7 83.262L260.24 192.932C260.243 193.481 260.047 194.009 259.696 194.399C259.345 194.789 258.867 195.01 258.368 195.014Z" fill="white"/>
                <path d="M223.264 79.752C223.55 79.752 223.782 79.4962 223.782 79.1806C223.782 78.865 223.55 78.6092 223.264 78.6092C222.977 78.6092 222.745 78.865 222.745 79.1806C222.745 79.4962 222.977 79.752 223.264 79.752Z" fill="white"/>
                <path d="M243.651 112.071H203.978C203.701 112.071 203.436 111.95 203.241 111.735C203.045 111.52 202.935 111.229 202.935 110.925V93.22C202.935 92.916 203.045 92.6245 203.241 92.4095C203.436 92.1945 203.701 92.0735 203.978 92.0732H243.651C243.927 92.0735 244.192 92.1945 244.388 92.4095C244.583 92.6245 244.693 92.916 244.693 93.22V110.925C244.693 111.229 244.583 111.52 244.388 111.735C244.192 111.95 243.927 112.071 243.651 112.071Z" fill="#6C63FF"/>
                <path d="M239.873 120.564H207.757C207.425 120.564 207.107 120.419 206.872 120.161C206.637 119.903 206.505 119.553 206.505 119.188C206.505 118.823 206.637 118.473 206.872 118.215C207.107 117.957 207.425 117.812 207.757 117.812H239.873C241.487 117.787 241.503 120.589 239.873 120.564Z" fill="#E4E4E4"/>
                <path d="M239.873 126.872H207.755C207.424 126.872 207.106 126.726 206.872 126.468C206.637 126.21 206.506 125.861 206.506 125.496C206.506 125.131 206.637 124.782 206.872 124.524C207.106 124.266 207.424 124.12 207.755 124.12H239.873C241.487 124.095 241.503 126.897 239.873 126.872Z" fill="#E4E4E4"/>
                <path d="M239.873 133.18H207.757C207.425 133.18 207.107 133.035 206.872 132.777C206.637 132.519 206.505 132.169 206.505 131.804C206.505 131.439 206.637 131.089 206.872 130.831C207.107 130.573 207.425 130.428 207.757 130.428H239.873C241.487 130.403 241.503 133.205 239.873 133.18Z" fill="#E4E4E4"/>
                <path d="M243.651 163.444H203.978C203.701 163.443 203.436 163.322 203.241 163.107C203.045 162.892 202.935 162.601 202.935 162.297V144.592C202.935 144.288 203.045 143.997 203.241 143.782C203.436 143.567 203.701 143.446 203.978 143.445H243.651C243.927 143.446 244.192 143.567 244.388 143.782C244.583 143.997 244.693 144.288 244.693 144.592V162.297C244.693 162.601 244.583 162.892 244.388 163.107C244.192 163.322 243.927 163.443 243.651 163.444Z" fill="#6C63FF"/>
                <path d="M239.873 171.937H207.757C207.425 171.937 207.107 171.792 206.872 171.534C206.637 171.275 206.505 170.925 206.505 170.56C206.505 170.195 206.637 169.845 206.872 169.587C207.107 169.329 207.425 169.184 207.757 169.184H239.873C241.487 169.159 241.503 171.962 239.873 171.937Z" fill="#E4E4E4"/>
                <path d="M239.873 178.244H207.755C207.424 178.244 207.106 178.098 206.872 177.84C206.637 177.582 206.506 177.233 206.506 176.868C206.506 176.503 206.637 176.154 206.872 175.896C207.106 175.638 207.424 175.492 207.755 175.492H239.873C241.487 175.467 241.503 178.269 239.873 178.244Z" fill="#E4E4E4"/>
                <path d="M239.873 184.552H207.757C207.425 184.552 207.107 184.407 206.872 184.149C206.637 183.891 206.505 183.541 206.505 183.176C206.505 182.811 206.637 182.461 206.872 182.203C207.107 181.945 207.425 181.8 207.757 181.8H239.873C241.487 181.775 241.503 184.577 239.873 184.552Z" fill="#E4E4E4"/>
                <path d="M77.3785 194.354L77.2465 134.292L77.7443 134.291L77.7203 123.244L77.2225 123.245L77.1817 104.805C77.1802 104.116 77.0554 103.434 76.8144 102.798C76.5733 102.163 76.2208 101.586 75.7769 101.1C75.3331 100.614 74.8065 100.229 74.2274 99.9669C73.6482 99.7048 73.0279 99.5708 72.4016 99.5725L36.9147 99.6667C36.2885 99.6683 35.6687 99.8056 35.0907 100.071C34.5127 100.336 33.9878 100.723 33.5461 101.212C33.1043 101.7 32.7543 102.279 32.516 102.916C32.2777 103.553 32.1559 104.235 32.1574 104.924L32.1856 117.782L31.3927 117.804L31.5678 125.527L32.2026 125.51L32.2064 127.214L31.5308 127.233L31.706 134.956L32.2233 134.942L32.3541 194.473C32.3545 195.162 32.4785 195.845 32.7191 196.481C32.9598 197.117 33.3122 197.695 33.7564 198.181C34.2005 198.667 34.7275 199.052 35.3072 199.314C35.8868 199.575 36.5078 199.708 37.1343 199.706L72.6211 199.611C73.8854 199.606 75.0963 199.05 75.9882 198.064C76.88 197.079 77.38 195.744 77.3785 194.354Z" fill="#3F3D56"/>
                <path d="M36.0491 197.302C35.6066 197.127 35.2237 196.807 34.9525 196.384C34.6814 195.961 34.5351 195.457 34.5336 194.94L34.3349 104.446C34.3335 103.779 34.5728 103.139 35.0003 102.667C35.4278 102.195 36.0084 101.928 36.6143 101.927L44.1647 101.906L44.0712 102.16C43.909 102.6 43.8478 103.078 43.8929 103.55C43.938 104.023 44.0881 104.476 44.3298 104.869C44.5716 105.263 44.8977 105.585 45.2794 105.807C45.6611 106.03 46.0866 106.146 46.5185 106.144L63.275 106.1C63.6921 106.06 64.0948 105.913 64.4505 105.67C64.8062 105.427 65.1049 105.095 65.3224 104.702C65.5368 104.315 65.6651 103.878 65.6967 103.426C65.7283 102.975 65.6624 102.521 65.5043 102.103L65.4098 101.85L73.2089 101.829C73.8147 101.828 74.396 102.092 74.8254 102.562C75.2548 103.032 75.4972 103.67 75.4994 104.336L75.6892 190.676C75.6911 192.444 75.0554 194.14 73.9214 195.393C72.7875 196.647 71.248 197.354 69.6405 197.36L36.8241 197.447C36.5601 197.448 36.2979 197.399 36.0491 197.302Z" fill="white"/>
                <path d="M48.9766 104.051C49.2635 104.051 49.496 103.796 49.496 103.48C49.496 103.165 49.2635 102.909 48.9766 102.909C48.6897 102.909 48.4572 103.165 48.4572 103.48C48.4572 103.796 48.6897 104.051 48.9766 104.051Z" fill="white"/>
                <path d="M69.0583 131.863H42.0974C41.9096 131.863 41.7294 131.781 41.5966 131.635C41.4637 131.489 41.389 131.29 41.3888 131.084V119.052C41.389 118.846 41.4637 118.647 41.5966 118.501C41.7294 118.355 41.9096 118.273 42.0974 118.273H69.0583C69.2462 118.273 69.4263 118.355 69.5592 118.501C69.692 118.647 69.7667 118.846 69.7669 119.052V131.084C69.7667 131.29 69.692 131.489 69.5592 131.635C69.4263 131.781 69.2462 131.863 69.0583 131.863Z" fill="#6C63FF"/>
                <path d="M66.4911 137.634H44.6646C44.5528 137.634 44.4421 137.61 44.3387 137.563C44.2353 137.516 44.1414 137.448 44.0622 137.361C43.9831 137.274 43.9203 137.171 43.8775 137.057C43.8346 136.944 43.8126 136.822 43.8126 136.699C43.8126 136.576 43.8346 136.454 43.8775 136.341C43.9203 136.227 43.9831 136.124 44.0622 136.037C44.1414 135.951 44.2353 135.882 44.3387 135.835C44.4421 135.788 44.5528 135.764 44.6646 135.764H66.4911C67.5878 135.747 67.5987 137.651 66.4911 137.634Z" fill="#E4E4E4"/>
                <path d="M66.4911 141.921H44.6646C44.4391 141.921 44.2228 141.822 44.0633 141.647C43.9038 141.471 43.8142 141.234 43.8142 140.986C43.8142 140.738 43.9038 140.5 44.0633 140.325C44.2228 140.149 44.4391 140.051 44.6646 140.051H66.4911C67.5878 140.034 67.5987 141.937 66.4911 141.921Z" fill="#E4E4E4"/>
                <path d="M66.4911 146.207H44.6646C44.5528 146.207 44.4421 146.183 44.3387 146.137C44.2353 146.09 44.1414 146.021 44.0622 145.934C43.9831 145.847 43.9203 145.744 43.8775 145.63C43.8346 145.517 43.8126 145.395 43.8126 145.272C43.8126 145.149 43.8346 145.028 43.8775 144.914C43.9203 144.801 43.9831 144.698 44.0622 144.611C44.1414 144.524 44.2353 144.455 44.3387 144.408C44.4421 144.361 44.5528 144.337 44.6646 144.338H66.4911C67.5878 144.321 67.5987 146.224 66.4911 146.207Z" fill="#E4E4E4"/>
                <path d="M69.0583 167.918H42.0974C41.9096 167.917 41.7294 167.835 41.5966 167.689C41.4637 167.543 41.389 167.345 41.3888 167.138V155.107C41.389 154.9 41.4637 154.702 41.5966 154.556C41.7294 154.41 41.9096 154.328 42.0974 154.327H69.0583C69.2462 154.328 69.4263 154.41 69.5592 154.556C69.692 154.702 69.7667 154.9 69.7669 155.107V167.138C69.7667 167.345 69.692 167.543 69.5592 167.689C69.4263 167.835 69.2462 167.917 69.0583 167.918Z" fill="#6C63FF"/>
                <path d="M66.4911 173.688H44.6646C44.5528 173.689 44.4421 173.665 44.3387 173.618C44.2353 173.571 44.1414 173.502 44.0622 173.415C43.9831 173.328 43.9203 173.225 43.8775 173.112C43.8346 172.998 43.8126 172.876 43.8126 172.754C43.8126 172.631 43.8346 172.509 43.8775 172.395C43.9203 172.282 43.9831 172.179 44.0622 172.092C44.1414 172.005 44.2353 171.936 44.3387 171.889C44.4421 171.842 44.5528 171.818 44.6646 171.819H66.4911C67.5878 171.802 67.5987 173.705 66.4911 173.688Z" fill="#E4E4E4"/>
                <path d="M66.4911 177.975H44.6646C44.4391 177.975 44.2228 177.877 44.0633 177.701C43.9038 177.526 43.8142 177.288 43.8142 177.04C43.8142 176.792 43.9038 176.555 44.0633 176.379C44.2228 176.204 44.4391 176.105 44.6646 176.105H66.4911C67.5878 176.089 67.5987 177.992 66.4911 177.975Z" fill="#E4E4E4"/>
                <path d="M66.4911 182.262H44.6646C44.5528 182.262 44.4421 182.238 44.3387 182.191C44.2353 182.144 44.1414 182.075 44.0622 181.989C43.9831 181.902 43.9203 181.799 43.8775 181.685C43.8346 181.571 43.8126 181.45 43.8126 181.327C43.8126 181.204 43.8346 181.082 43.8775 180.969C43.9203 180.855 43.9831 180.752 44.0622 180.665C44.1414 180.578 44.2353 180.509 44.3387 180.463C44.4421 180.416 44.5528 180.392 44.6646 180.392H66.4911C67.5878 180.375 67.5987 182.279 66.4911 182.262Z" fill="#E4E4E4"/>
                <path d="M8.78962 196.419L11.7193 196.418L13.1129 183.991H8.78896L8.78962 196.419Z" fill="#A0616A"/>
                <path d="M8.04233 195.367L8.8669 195.367L12.0862 193.927L13.8116 195.367H13.8119C14.787 195.367 15.7221 195.793 16.4116 196.551C17.1011 197.309 17.4885 198.338 17.4885 199.41V199.542L8.04249 199.542L8.04233 195.367Z" fill="#2F2E41"/>
                <path d="M20.1423 194.388L22.9997 195.098L26.8482 183.313L22.6307 182.266L20.1423 194.388Z" fill="#A0616A"/>
                <path d="M19.6239 193.181L20.4282 193.381L23.8568 192.756L25.2514 194.579L25.2517 194.579C26.2028 194.815 27.0296 195.457 27.5503 196.364C28.0709 197.271 28.2428 198.368 28.0281 199.414L28.0018 199.542L18.7879 197.254L19.6239 193.181Z" fill="#2F2E41"/>
                <path d="M5.07926 120.443C3.70575 124.999 3.85096 129.944 5.40941 135.252L6.07561 165.136C6.07561 165.136 5.08302 184.734 8.28593 191.63H12.931L15.2309 163.347L15.5197 144.363L25.4784 160.379L19.1354 191.167L24.8524 191.729L35.1454 158.317L22.4459 125.9L5.07926 120.443Z" fill="#2F2E41"/>
                <path d="M23.2743 126.857L6.38356 123.886C5.94057 123.73 5.53352 123.47 5.19037 123.125C4.84722 122.779 4.57609 122.357 4.39559 121.885C4.21509 121.414 4.1295 120.905 4.1447 120.393C4.15989 119.882 4.27551 119.38 4.48361 118.923L5.24959 117.238L4.95205 99.534C4.91618 97.2311 5.43238 94.9585 6.4487 92.9447C7.46502 90.931 8.94562 89.2471 10.7415 88.0625L12.3887 86.9793L13.2211 84.6544L20.8968 84.8603L20.9192 87.9095L23.6681 92.7304L23.668 92.7504L23.4955 118.99L22.7379 121.698L23.8834 124.847L23.2743 126.857Z" fill="#3F3D56"/>
                <path d="M17.7618 81.7635C21.6136 81.7635 24.736 78.3293 24.736 74.0931C24.736 69.8569 21.6136 66.4227 17.7618 66.4227C13.9101 66.4227 10.7877 69.8569 10.7877 74.0931C10.7877 78.3293 13.9101 81.7635 17.7618 81.7635Z" fill="#FFB6B6"/>
                <path d="M10.4996 75.7652C10.2916 74.8014 10.3871 73.4452 10.5046 72.4747C10.6552 71.1951 11.0485 69.9645 11.6591 68.8628C12.2698 67.7611 13.084 66.8127 14.0492 66.0792C14.4193 65.7701 14.859 65.5779 15.3211 65.5233C15.552 65.5019 15.7832 65.5614 15.9815 65.6933C16.1798 65.8253 16.3351 66.0228 16.425 66.2577C16.5414 65.9384 16.7159 65.6487 16.938 65.4065C17.1601 65.1643 17.4249 64.9748 17.7162 64.8495C18.3013 64.603 18.9306 64.5097 19.5541 64.5772C20.7628 64.6868 21.9219 65.1542 22.9085 65.9298C23.8951 66.7055 24.6724 67.7604 25.1579 68.9827C25.3441 69.4694 25.8644 67.6717 26.1005 68.1316C26.3173 68.6096 26.6957 68.9752 27.1546 69.1503C27.6171 69.2922 27.8049 71.3878 27.9869 70.8991C28.1281 71.2603 28.184 71.6548 28.1492 72.0461C28.1144 72.4373 27.9902 72.8125 27.7881 73.1367C27.5859 73.461 27.3125 73.7236 26.9932 73.9003C26.6739 74.077 26.3192 74.162 25.962 74.1473C25.4951 74.0809 25.0323 73.9835 24.5761 73.8555C23.7385 73.7394 22.8912 73.9647 22.1942 74.4887C21.4972 75.0126 20.9988 75.7992 20.793 76.6997C20.6657 76.176 20.4624 75.6784 20.1908 75.2261C20.0529 75.0011 19.8682 74.8155 19.652 74.6849C19.4358 74.5542 19.1944 74.4823 18.9478 74.4749C18.7121 74.5047 18.4844 74.5871 18.2787 74.7171C18.073 74.8472 17.8936 75.0221 17.7516 75.2312C17.4446 75.6277 17.214 76.0903 16.9047 76.4846C15.9972 77.6418 14.7697 80.3403 13.4763 80.1435C12.4556 79.9882 10.7836 77.0812 10.4996 75.7652Z" fill="#2F2E41"/>
                <path d="M43.7608 121.258C43.464 121.4 43.1425 121.469 42.819 121.459C42.4955 121.45 42.1778 121.362 41.8884 121.203C41.5989 121.044 41.3448 120.817 41.1438 120.538C40.9428 120.259 40.7998 119.935 40.725 119.588L32.8982 118.719L35.4803 115.233L42.5169 116.593C43.0542 116.494 43.606 116.614 44.0679 116.932C44.5298 117.25 44.8696 117.743 45.0229 118.318C45.1762 118.893 45.1324 119.51 44.8998 120.052C44.6672 120.594 44.2619 121.023 43.7608 121.258Z" fill="#A0616A"/>
                <path d="M38.9466 119.876L20.6815 118.025L20.6564 117.993L7.32603 101.194C6.44875 99.7158 6.11844 97.9247 6.40274 96.1873C6.68703 94.45 7.56443 92.8979 8.85527 91.8489C9.5695 91.2699 10.3871 90.8639 11.2543 90.6575C12.1215 90.4511 13.0186 90.4491 13.8866 90.6515C14.7546 90.8539 15.5737 91.2562 16.2901 91.8319C17.0065 92.4076 17.6039 93.1437 18.043 93.9917L26.2535 109.848L39.1478 115.546L38.9466 119.876Z" fill="#3F3D56"/>
                <path d="M281.651 200.001H0.347782C0.255451 200 0.166993 199.947 0.1018 199.854C0.0366072 199.76 0 199.633 0 199.5C0 199.368 0.0366072 199.241 0.1018 199.147C0.166993 199.053 0.255451 199 0.347782 199H281.651C281.744 199 281.832 199.053 281.898 199.147C281.963 199.24 282 199.368 282 199.5C282 199.633 281.963 199.76 281.898 199.854C281.832 199.948 281.744 200.001 281.651 200.001Z" fill="#CCCCCC"/>
                </g>
                <defs>
                <clipPath id="clip0_2_192">
                <rect width="282" height="200" fill="white"/>
                </clipPath>
                </defs>
                 
        </g>

</svg>